<?xml version="1.0" encoding="UTF-8"?>
<!DOCTYPE svg PUBLIC "-//W3C//DTD SVG 1.1//EN" "http://www.w3.org/Graphics/SVG/1.1/DTD/svg11.dtd">
<!-- Creator: CorelDRAW -->
<svg xmlns="http://www.w3.org/2000/svg" xml:space="preserve" width="14.0779mm" height="13.9544mm" version="1.1" style="shape-rendering:geometricPrecision; text-rendering:geometricPrecision; image-rendering:optimizeQuality; fill-rule:evenodd; clip-rule:evenodd"
viewBox="0 0 398.43 394.94"
 xmlns:xlink="http://www.w3.org/1999/xlink"
 xmlns:xodm="http://www.corel.com/coreldraw/odm/2003">
 <defs>
  <style type="text/css">
   <![CDATA[
    .fil1 {fill:#02C9B8;fill-rule:nonzero}
    .fil0 {fill:#2490EB;fill-rule:nonzero}
   ]]>
  </style>
 </defs>
 <g id="Layer_x0020_1">
  <metadata id="CorelCorpID_0Corel-Layer"/>
  <g id="_1899545077664">
   <path class="fil0" d="M353.53 129.31l-84.41 0 0 -100.56c0,-15.88 -12.87,-28.75 -28.75,-28.75l-89.29 0c-15.88,0 -28.75,12.87 -28.75,28.75 0,6.27 1.12,12.5 3.3,18.38 6.76,18.22 24.77,57.22 61.99,82.18 3.8,2.55 7.8,4.96 12.01,7.18 2.39,1.26 4.87,2.35 7.4,3.32 9.34,3.58 37.74,15.05 62.09,31.13 18.6,12.28 34.85,27.24 38.44,43.42 0,0 -18.62,-12.62 -38.44,-20.46 -13.13,-5.19 -26.79,-8.28 -35.93,-4.22 -5.5,2.45 -8.29,8.64 -6.73,14.45 3.43,12.78 11.92,43.56 21.55,71.97 6.94,20.48 14.47,39.72 21.1,50.1l0 -50.1 89.71 0c21.87,0 39.6,-17.73 39.6,-39.6l0 -62.28c0.01,-24.8 -20.1,-44.91 -44.9,-44.91zm-146.16 3.5c-4.81,0 -9.32,-1.27 -13.23,-3.5 -8.1,-4.6 -13.57,-13.31 -13.57,-23.3 0,-14.8 12,-26.79 26.8,-26.79 14.8,0 26.79,11.99 26.79,26.79 0,9.99 -5.47,18.69 -13.57,23.3 -3.91,2.22 -8.42,3.5 -13.23,3.5z"/>
   <path class="fil1" d="M235.83 303.54c-2.2,-3.37 -4.48,-6.67 -7.01,-9.78 -3.92,-4.84 -9.62,-11.53 -15.72,-17.65 -5.74,-5.75 -11.84,-10.99 -17.2,-13.71 -4.91,-2.49 -10.9,-0.66 -13.57,4.16 -1.29,2.33 -2.69,5.48 -3.86,9.55 -0.89,3.1 -1.64,6.73 -2.12,10.96 -0.57,5.02 -1.31,10.02 -2.36,14.97 -2.22,10.43 -6.16,27.03 -10.69,37.66 -0.63,1.49 -2.83,1.13 -2.95,-0.49 -0.8,-11.08 -2.52,-36.92 -3.21,-63.11 -0.44,-16.87 -0.46,-33.87 0.47,-47.17 0.47,-6.68 0.42,-13.38 -0.16,-20.05l-2.84 -32.44c-1.24,-14.08 -5.23,-27.76 -11.71,-40.32 -1.1,-2.14 -2.26,-4.43 -3.42,-6.8 -7.61,-15.53 -15.93,-35.39 -17.15,-50.1l0 50.1 -98.57 0c-0.3,4.83 -0.46,9.69 -0.46,14.56 0,49.14 15.42,94.73 41.65,132.23l57.38 0 0 57.38c37.5,26.23 83.09,41.64 132.23,41.64 4.85,0 9.71,-0.16 14.56,-0.46l0 -35.49c0,0 -25.45,-23.63 -33.28,-35.65z"/>
   <path class="fil0" d="M269.12 389.85c-4.82,0.28 -9.68,0.43 -14.56,0.43 -48.66,0 -94.02,-14.11 -132.23,-38.46 -30.43,-19.39 -56.32,-45.28 -75.71,-75.72 -24.35,-38.2 -38.46,-83.56 -38.46,-132.23 0,-4.89 0.16,-9.74 0.44,-14.56 1.45,-24.79 6.55,-48.61 14.8,-70.9 -10.66,22.01 -17.97,45.95 -21.32,71.16 -1.35,10.21 -2.07,20.62 -2.07,31.2 0,41.93 10.98,81.29 30.19,115.33 21.59,38.27 53.59,69.82 92.13,90.78 32.92,17.9 70.62,28.06 110.68,28.06 12.28,0 24.35,-0.97 36.12,-2.81 7.52,-1.17 14.92,-2.7 22.18,-4.58 -7.29,1.09 -14.69,1.86 -22.18,2.3z"/>
  </g>
 </g>
</svg>
