<?xml version="1.0" encoding="UTF-8"?>
<!DOCTYPE svg PUBLIC "-//W3C//DTD SVG 1.1//EN" "http://www.w3.org/Graphics/SVG/1.1/DTD/svg11.dtd">
<!-- Creator: CorelDRAW -->
<svg xmlns="http://www.w3.org/2000/svg" xml:space="preserve" width="13.7371mm" height="13.7371mm" version="1.1" style="shape-rendering:geometricPrecision; text-rendering:geometricPrecision; image-rendering:optimizeQuality; fill-rule:evenodd; clip-rule:evenodd"
viewBox="0 0 343.24 343.24"
 xmlns:xlink="http://www.w3.org/1999/xlink"
 xmlns:xodm="http://www.corel.com/coreldraw/odm/2003">
 <defs>
  <style type="text/css">
   <![CDATA[
    .fil0 {fill:#FEFEFE}
    .fil2 {fill:#02C9B8;fill-rule:nonzero}
    .fil1 {fill:#2490EB;fill-rule:nonzero}
   ]]>
  </style>
 </defs>
 <g id="Layer_x0020_1">
  <metadata id="CorelCorpID_0Corel-Layer"/>
  <g id="_1935885846016">
   <circle class="fil0" cx="171.62" cy="171.62" r="171.62"/>
   <path class="fil1" d="M279.03 134.82l-62.17 0 0 -74.07c0,-11.7 -9.48,-21.18 -21.18,-21.18l-65.76 0c-11.7,0 -21.18,9.48 -21.18,21.18 0,4.62 0.82,9.2 2.43,13.54 4.98,13.42 18.24,42.14 45.66,60.53 2.8,1.88 5.74,3.65 8.85,5.29 1.76,0.93 3.59,1.73 5.45,2.45 6.88,2.63 27.79,11.09 45.73,22.93 13.7,9.04 25.67,20.06 28.31,31.98 0,0 -13.71,-9.29 -28.31,-15.07 -9.67,-3.82 -19.73,-6.1 -26.46,-3.11 -4.05,1.8 -6.11,6.36 -4.95,10.64 2.52,9.41 8.78,32.08 15.87,53.01 5.11,15.08 10.65,29.26 15.54,36.9l0 -36.9 66.07 0c16.11,0 29.17,-13.06 29.17,-29.17l0 -45.87c0,-18.26 -14.81,-33.07 -33.07,-33.07zm-107.65 2.57c-3.55,0 -6.87,-0.94 -9.74,-2.57 -5.97,-3.39 -9.99,-9.8 -9.99,-17.16 0,-10.9 8.84,-19.73 19.74,-19.73 10.9,0 19.73,8.84 19.73,19.73 0,7.36 -4.03,13.77 -9.99,17.16 -2.88,1.64 -6.2,2.57 -9.74,2.57z"/>
   <path class="fil2" d="M192.35 263.14c-1.62,-2.48 -3.3,-4.91 -5.16,-7.21 -2.89,-3.56 -7.08,-8.49 -11.58,-13 -4.23,-4.23 -8.72,-8.09 -12.67,-10.1 -3.62,-1.83 -8.03,-0.49 -9.99,3.06 -0.95,1.72 -1.98,4.03 -2.84,7.03 -0.65,2.28 -1.21,4.95 -1.56,8.07 -0.42,3.7 -0.96,7.38 -1.74,11.02 -1.64,7.69 -4.54,19.91 -7.87,27.74 -0.47,1.1 -2.09,0.83 -2.17,-0.36 -0.59,-8.16 -1.86,-27.19 -2.37,-46.48 -0.33,-12.42 -0.34,-24.95 0.35,-34.74 0.35,-4.92 0.31,-9.86 -0.12,-14.77l-2.09 -23.89c-0.91,-10.37 -3.85,-20.45 -8.62,-29.7 -0.81,-1.58 -1.66,-3.26 -2.52,-5.01 -5.6,-11.44 -11.73,-26.06 -12.63,-36.9l0 36.9 -72.6 0c-0.22,3.56 -0.34,7.14 -0.34,10.73 0,36.19 11.35,69.77 30.67,97.39l42.26 0 0 42.26c27.62,19.32 61.2,30.67 97.39,30.67 3.57,0 7.15,-0.12 10.73,-0.34l0 -26.14c0,0 -18.75,-17.41 -24.51,-26.26z"/>
   <path class="fil1" d="M216.86 326.72c-3.55,0.21 -7.13,0.32 -10.73,0.32 -35.84,0 -69.25,-10.39 -97.39,-28.32 -22.42,-14.28 -41.48,-33.35 -55.76,-55.77 -17.93,-28.14 -28.33,-61.55 -28.33,-97.39 0,-3.6 0.12,-7.18 0.32,-10.73 1.07,-18.26 4.82,-35.8 10.9,-52.22 -7.85,16.21 -13.24,33.84 -15.7,52.41 -1,7.52 -1.53,15.18 -1.53,22.98 0,30.89 8.09,59.87 22.24,84.95 15.9,28.18 39.47,51.43 67.86,66.86 24.25,13.18 52.01,20.66 81.51,20.66 9.05,0 17.93,-0.71 26.6,-2.07 5.54,-0.86 10.99,-1.99 16.34,-3.37 -5.37,0.8 -10.82,1.37 -16.34,1.69z"/>
  </g>
 </g>
</svg>
