<?xml version="1.0" encoding="UTF-8"?>
<!DOCTYPE svg PUBLIC "-//W3C//DTD SVG 1.1//EN" "http://www.w3.org/Graphics/SVG/1.1/DTD/svg11.dtd">
<!-- Creator: CorelDRAW -->
<svg xmlns="http://www.w3.org/2000/svg" xml:space="preserve" width="51.6985mm" height="13.7371mm" version="1.1" style="shape-rendering:geometricPrecision; text-rendering:geometricPrecision; image-rendering:optimizeQuality; fill-rule:evenodd; clip-rule:evenodd"
viewBox="0 0 5124.8 1361.74"
 xmlns:xlink="http://www.w3.org/1999/xlink"
 xmlns:xodm="http://www.corel.com/coreldraw/odm/2003">
 <defs>
  <style type="text/css">
   <![CDATA[
    .fil0 {fill:#FEFEFE}
    .fil3 {fill:#FEFEFE;fill-rule:nonzero}
    .fil4 {fill:#DFEFF2;fill-rule:nonzero}
    .fil2 {fill:#02C9B8;fill-rule:nonzero}
    .fil1 {fill:#2490EB;fill-rule:nonzero}
   ]]>
  </style>
 </defs>
 <g id="Layer_x0020_1">
  <metadata id="CorelCorpID_0Corel-Layer"/>
  <g id="_1935889502944">
   <g>
    <circle class="fil0" cx="680.87" cy="680.87" r="680.87"/>
    <path class="fil1" d="M1107.01 534.9l-246.65 0 0 -293.85c0,-46.4 -37.62,-84.01 -84.01,-84.01l-260.91 0c-46.4,0 -84.01,37.61 -84.01,84.01 0,18.34 3.27,36.52 9.65,53.71 19.75,53.25 72.38,167.2 181.14,240.14 11.1,7.45 22.79,14.49 35.1,20.98 6.99,3.69 14.22,6.88 21.61,9.7 27.28,10.45 110.26,43.98 181.43,90.96 54.36,35.88 101.83,79.6 112.33,126.87 0,0 -54.4,-36.88 -112.33,-59.77 -38.37,-15.17 -78.29,-24.21 -104.99,-12.32 -16.06,7.15 -24.23,25.24 -19.66,42.22 10.01,37.33 34.84,127.28 62.98,210.29 20.27,59.84 42.27,116.07 61.67,146.38l0 -146.38 262.14 0c63.92,0 115.72,-51.8 115.72,-115.72l0 -181.99c0.01,-72.46 -58.74,-131.22 -131.21,-131.22zm-427.08 10.21c-14.07,0 -27.24,-3.72 -38.65,-10.21 -23.67,-13.46 -39.65,-38.9 -39.65,-68.08 0,-43.24 35.06,-78.29 78.3,-78.29 43.24,0 78.29,35.05 78.29,78.29 0,29.18 -15.97,54.62 -39.64,68.08 -11.41,6.49 -24.59,10.21 -38.65,10.21z"/>
    <path class="fil2" d="M763.1 1043.98c-6.41,-9.83 -13.09,-19.47 -20.49,-28.59 -11.46,-14.14 -28.1,-33.68 -45.95,-51.56 -16.76,-16.79 -34.61,-32.11 -50.27,-40.06 -14.35,-7.27 -31.84,-1.93 -39.64,12.15 -3.78,6.82 -7.85,16 -11.27,27.9 -2.59,9.04 -4.8,19.66 -6.21,32.03 -1.66,14.67 -3.82,29.27 -6.9,43.73 -6.49,30.49 -18,78.98 -31.24,110.06 -1.85,4.35 -8.28,3.29 -8.61,-1.43 -2.35,-32.38 -7.38,-107.88 -9.39,-184.39 -1.3,-49.29 -1.35,-98.98 1.39,-137.83 1.38,-19.53 1.24,-39.11 -0.48,-58.6l-8.31 -94.8c-3.62,-41.14 -15.28,-81.12 -34.21,-117.81 -3.22,-6.26 -6.59,-12.94 -9.99,-19.89 -22.23,-45.37 -46.54,-103.4 -50.12,-146.38l0 146.38 -288.02 0c-0.88,14.13 -1.34,28.31 -1.34,42.56 0,143.57 45.04,276.8 121.69,386.37l167.67 0 0 167.67c109.58,76.65 242.81,121.69 386.37,121.69 14.17,0 28.37,-0.48 42.56,-1.36l0 -103.69c0,0 -74.38,-69.05 -97.25,-104.16z"/>
    <path class="fil1" d="M860.36 1296.19c-14.08,0.82 -28.27,1.26 -42.56,1.26 -142.19,0 -274.73,-41.24 -386.37,-112.37 -88.93,-56.67 -164.57,-132.32 -221.24,-221.24 -71.14,-111.64 -112.38,-244.18 -112.38,-386.37 0,-14.29 0.47,-28.47 1.29,-42.56 4.23,-72.44 19.14,-142.02 43.23,-207.16 -31.16,64.3 -52.52,134.27 -62.28,207.92 -3.96,29.83 -6.06,60.24 -6.06,91.16 0,122.53 32.08,237.52 88.21,337.01 63.1,111.82 156.58,204.03 269.22,265.25 96.2,52.29 206.35,81.98 323.4,81.98 35.89,0 71.13,-2.83 105.53,-8.21 21.97,-3.43 43.6,-7.89 64.81,-13.38 -21.31,3.19 -42.93,5.43 -64.81,6.72z"/>
   </g>
   <g>
    <path class="fil3" d="M1817.36 433.26c0,21.51 -5.09,41.66 -15.27,60.49 -10.18,18.81 -26.11,33.98 -47.81,45.5 -21.7,11.52 -49.06,17.28 -82.08,17.28l-67.4 0 0 154.37 -80.64 0 0 -402.06 148.04 0c31.11,0 57.6,5.38 79.49,16.13 21.89,10.76 38.3,25.54 49.25,44.36 10.94,18.81 16.42,40.13 16.42,63.93zm-148.61 59.91c21.89,0 38.3,-5.38 49.25,-16.13 10.94,-10.76 16.42,-25.35 16.42,-43.79 0,-19.19 -5.37,-34.08 -16.13,-44.64 -10.75,-10.56 -27.26,-15.84 -49.53,-15.84l-63.94 0 0 120.39 63.94 0z"/>
    <path id="_1" class="fil3" d="M2054.1 387.19c24.19,0 45.7,5.28 64.51,15.84 18.81,10.56 33.51,26.11 44.06,46.65 10.56,20.55 15.84,45.22 15.84,74.02l0 187.2 -80.64 0 0 -176.26c0,-25.34 -6.33,-44.83 -19.01,-58.47 -12.67,-13.63 -29.95,-20.44 -51.83,-20.44 -22.27,0 -39.84,6.81 -52.71,20.44 -12.87,13.64 -19.3,33.13 -19.3,58.47l0 176.26 -80.64 0 0 -426.24 80.64 0 0 146.88c10.37,-13.82 24.2,-24.67 41.48,-32.54 17.28,-7.87 36.48,-11.81 57.6,-11.81z"/>
    <path id="_2" class="fil3" d="M2234.4 550.19c0,-32.26 6.42,-60.86 19.29,-85.83 12.87,-24.96 30.33,-44.16 52.42,-57.59 22.08,-13.44 46.75,-20.16 74.02,-20.16 23.8,0 44.64,4.8 62.49,14.39 17.86,9.61 32.17,21.7 42.91,36.29l0 -45.5 81.22 0 0 319.1 -81.22 0 0 -46.66c-10.37,14.98 -24.67,27.36 -42.91,37.15 -18.24,9.79 -39.26,14.69 -63.08,14.69 -26.87,0 -51.36,-6.91 -73.43,-20.74 -22.09,-13.82 -39.55,-33.31 -52.42,-58.47 -12.87,-25.15 -19.29,-54.04 -19.29,-86.69zm251.13 1.15c0,-19.58 -3.84,-36.38 -11.52,-50.4 -7.68,-14.02 -18.05,-24.77 -31.11,-32.26 -13.06,-7.48 -27.07,-11.23 -42.05,-11.23 -14.97,0 -28.8,3.65 -41.47,10.94 -12.68,7.3 -22.95,17.95 -30.82,31.97 -7.87,14.02 -11.81,30.62 -11.81,49.82 0,19.2 3.94,36 11.81,50.41 7.87,14.39 18.24,25.44 31.11,33.12 12.87,7.67 26.59,11.52 41.18,11.52 14.98,0 29,-3.75 42.05,-11.23 13.06,-7.49 23.42,-18.24 31.11,-32.26 7.68,-14.02 11.52,-30.82 11.52,-50.41z"/>
    <path id="_3" class="fil3" d="M2726.3 448.24c10.37,-19.2 23.91,-34.17 40.61,-44.93 16.7,-10.76 35.81,-16.13 57.32,-16.13l0 84.68 -21.31 0c-25.35,0 -44.45,5.95 -57.32,17.85 -12.87,11.91 -19.3,32.64 -19.3,62.2l0 158.98 -80.64 0 0 -319.1 80.64 0 0 56.44z"/>
    <path id="_4" class="fil3" d="M3274.66 387.19c39.17,0 70.75,11.99 94.76,36 24,24 35.99,57.5 35.99,100.51l0 187.2 -80.64 0 0 -176.26c0,-24.96 -6.33,-44.06 -19,-57.31 -12.68,-13.25 -29.96,-19.88 -51.84,-19.88 -21.89,0 -39.26,6.62 -52.13,19.88 -12.86,13.24 -19.29,32.35 -19.29,57.31l0 176.26 -80.64 0 0 -176.26c0,-24.96 -6.33,-44.06 -19.01,-57.31 -12.67,-13.25 -29.95,-19.88 -51.83,-19.88 -22.27,0 -39.84,6.62 -52.71,19.88 -12.87,13.24 -19.3,32.35 -19.3,57.31l0 176.26 -80.64 0 0 -319.1 80.64 0 0 38.59c10.37,-13.44 23.71,-24 40.04,-31.68 16.32,-7.68 34.27,-11.52 53.86,-11.52 24.96,0 47.23,5.28 66.81,15.84 19.59,10.56 34.75,25.63 45.51,45.21 10.37,-18.43 25.44,-33.22 45.21,-44.35 19.78,-11.13 41.19,-16.7 64.23,-16.7z"/>
    <polygon id="_5" class="fil3" points="3755.62,308.84 3755.62,372.21 3648.48,372.21 3648.48,710.9 3567.84,710.9 3567.84,372.21 3460.71,372.21 3460.71,308.84 "/>
    <path id="_6" class="fil3" d="M3895.02 448.24c10.37,-19.2 23.91,-34.17 40.61,-44.93 16.7,-10.76 35.81,-16.13 57.32,-16.13l0 84.68 -21.31 0c-25.35,0 -44.45,5.95 -57.32,17.85 -12.87,11.91 -19.3,32.64 -19.3,62.2l0 158.98 -80.64 0 0 -319.1 80.64 0 0 56.44z"/>
    <path id="_7" class="fil3" d="M4026.35 550.19c0,-32.26 6.42,-60.86 19.29,-85.83 12.87,-24.96 30.33,-44.16 52.42,-57.59 22.08,-13.44 46.75,-20.16 74.02,-20.16 23.8,0 44.64,4.8 62.49,14.39 17.86,9.61 32.17,21.7 42.91,36.29l0 -45.5 81.22 0 0 319.1 -81.22 0 0 -46.66c-10.37,14.98 -24.67,27.36 -42.91,37.15 -18.24,9.79 -39.26,14.69 -63.08,14.69 -26.87,0 -51.36,-6.91 -73.43,-20.74 -22.09,-13.82 -39.55,-33.31 -52.42,-58.47 -12.87,-25.15 -19.29,-54.04 -19.29,-86.69zm251.13 1.15c0,-19.58 -3.84,-36.38 -11.52,-50.4 -7.68,-14.02 -18.05,-24.77 -31.11,-32.26 -13.06,-7.48 -27.07,-11.23 -42.05,-11.23 -14.97,0 -28.8,3.65 -41.47,10.94 -12.68,7.3 -22.95,17.95 -30.82,31.97 -7.87,14.02 -11.81,30.62 -11.81,49.82 0,19.2 3.94,36 11.81,50.41 7.87,14.39 18.24,25.44 31.11,33.12 12.87,7.67 26.59,11.52 41.18,11.52 14.98,0 29,-3.75 42.05,-11.23 13.06,-7.49 23.42,-18.24 31.11,-32.26 7.68,-14.02 11.52,-30.82 11.52,-50.41z"/>
    <path id="_8" class="fil3" d="M4416.89 550.19c0,-32.26 6.42,-60.86 19.29,-85.83 12.87,-24.96 30.43,-44.16 52.71,-57.59 22.27,-13.44 47.04,-20.16 74.31,-20.16 20.74,0 40.51,4.51 59.33,13.53 18.81,9.03 33.79,21.03 44.93,36l0 -151.49 81.79 0 0 426.24 -81.79 0 0 -47.23c-9.98,15.74 -24,28.42 -42.05,38.02 -18.04,9.61 -38.98,14.4 -62.78,14.4 -26.88,0 -51.46,-6.91 -73.73,-20.74 -22.27,-13.82 -39.84,-33.31 -52.71,-58.47 -12.87,-25.15 -19.29,-54.04 -19.29,-86.69zm251.13 1.15c0,-19.58 -3.84,-36.38 -11.52,-50.4 -7.68,-14.02 -18.05,-24.77 -31.11,-32.26 -13.06,-7.48 -27.07,-11.23 -42.05,-11.23 -14.97,0 -28.8,3.65 -41.47,10.94 -12.68,7.3 -22.95,17.95 -30.82,31.97 -7.87,14.02 -11.81,30.62 -11.81,49.82 0,19.2 3.94,36 11.81,50.41 7.87,14.39 18.24,25.44 31.11,33.12 12.87,7.67 26.59,11.52 41.18,11.52 14.98,0 29,-3.75 42.05,-11.23 13.06,-7.49 23.42,-18.24 31.11,-32.26 7.68,-14.02 11.52,-30.82 11.52,-50.41z"/>
    <path id="_9" class="fil3" d="M5124.8 543.86c0,10.76 -0.76,20.74 -2.3,29.96l-233.28 0c1.54,23.42 9.41,41.85 23.61,55.29 14.21,13.44 31.87,20.16 52.99,20.16 29.96,0 51.26,-12.87 63.94,-38.6l86.98 0c-9.22,30.72 -26.88,55.97 -52.99,75.74 -26.11,19.78 -58.18,29.67 -96.19,29.67 -30.72,0 -58.27,-6.82 -82.65,-20.45 -24.39,-13.63 -43.39,-32.93 -57.03,-57.89 -13.63,-24.96 -20.44,-53.76 -20.44,-86.4 0,-33.02 6.71,-62.01 20.15,-86.98 13.44,-24.96 32.26,-44.16 56.45,-57.59 24.19,-13.44 52.03,-20.16 83.52,-20.16 30.34,0 57.5,6.52 81.5,19.58 24.01,13.06 42.63,31.49 55.88,55.3 13.24,23.8 19.87,51.26 19.87,82.37zm-83.52 -19.01c-0.39,-22.26 -7.77,-39.84 -22.18,-52.7 -14.4,-12.87 -32.36,-19.3 -53.86,-19.3 -20.35,0 -37.44,6.43 -51.27,19.3 -13.82,12.86 -22.08,30.43 -24.76,52.7l152.06 0z"/>
    <rect class="fil0" x="1521.95" y="761.67" width="3601.89" height="39.52"/>
    <polygon class="fil4" points="1631.91,850.97 1631.91,870.2 1591.93,870.2 1591.93,1001.14 1567.3,1001.14 1567.3,870.2 1527.11,870.2 1527.11,850.97 "/>
    <path id="_1_18" class="fil4" d="M1718.34 880.14c9.07,0 17.18,1.94 24.31,5.83 7.13,3.9 12.75,9.66 16.85,17.29 4.1,7.63 6.16,16.85 6.16,27.66l0 70.22 -24.42 0 0 -66.54c0,-10.67 -2.66,-18.83 -7.99,-24.52 -5.33,-5.69 -12.61,-8.53 -21.83,-8.53 -9.22,0 -16.52,2.84 -21.93,8.53 -5.4,5.69 -8.1,13.86 -8.1,24.52l0 66.54 -24.63 0 0 -159.89 24.63 0 0 54.67c4.17,-5.05 9.47,-8.93 15.88,-11.67 6.4,-2.74 13.43,-4.1 21.06,-4.1z"/>
    <path id="_2_19" class="fil4" d="M1906.1 938.26c0,4.17 -0.29,8.07 -0.86,11.67l-91.18 0c0.71,9.94 4.24,17.82 10.59,23.66 6.33,5.83 14.19,8.75 23.55,8.75 13.25,0 22.61,-5.55 28.08,-16.64l26.58 0c-3.6,10.95 -10.12,19.91 -19.55,26.9 -9.44,6.99 -21.14,10.48 -35.11,10.48 -11.38,0 -21.57,-2.56 -30.58,-7.67 -9,-5.11 -16.06,-12.31 -21.17,-21.6 -5.12,-9.3 -7.67,-20.06 -7.67,-32.31 0,-12.24 2.49,-23.01 7.45,-32.31 4.98,-9.29 11.96,-16.46 20.97,-21.49 9,-5.05 19.34,-7.56 31.01,-7.56 11.23,0 21.24,2.45 30.03,7.35 8.79,4.9 15.63,11.74 20.53,20.52 4.9,8.79 7.35,18.87 7.35,30.25zm-25.71 -6.05c-0.14,-9.66 -3.34,-17.29 -9.62,-22.91 -6.26,-5.61 -14.15,-8.43 -23.65,-8.43 -8.64,0 -16.03,2.82 -22.16,8.43 -6.12,5.62 -9.68,13.25 -10.69,22.91l66.11 0z"/>
    <path id="_3_20" class="fil4" d="M2100.14 895.7c0,7.63 -1.8,14.84 -5.4,21.61 -3.6,6.77 -9.36,12.28 -17.29,16.52 -7.92,4.25 -18.07,6.37 -30.46,6.37l-27.22 0 0 60.93 -24.63 0 0 -150.17 51.85 0c11.53,0 21.28,1.98 29.28,5.95 7.99,3.96 13.97,9.32 17.93,16.09 3.96,6.77 5.94,14.33 5.94,22.69zm-53.15 25.28c9.37,0 16.35,-2.23 20.96,-6.69 4.61,-4.47 6.92,-10.67 6.92,-18.59 0,-8.07 -2.31,-14.33 -6.92,-18.79 -4.61,-4.47 -11.59,-6.7 -20.96,-6.7l-27.22 0 0 50.77 27.22 0z"/>
    <path id="_4_21" class="fil4" d="M2185.27 880.14c9.07,0 17.18,1.94 24.31,5.83 7.13,3.9 12.75,9.66 16.85,17.29 4.1,7.63 6.16,16.85 6.16,27.66l0 70.22 -24.42 0 0 -66.54c0,-10.67 -2.66,-18.83 -7.99,-24.52 -5.33,-5.69 -12.61,-8.53 -21.83,-8.53 -9.22,0 -16.52,2.84 -21.93,8.53 -5.4,5.69 -8.1,13.86 -8.1,24.52l0 66.54 -24.63 0 0 -159.89 24.63 0 0 54.67c4.17,-5.05 9.47,-8.93 15.88,-11.67 6.4,-2.74 13.43,-4.1 21.06,-4.1z"/>
    <path id="_5_22" class="fil4" d="M2255.7 941.07c0,-11.95 2.49,-22.54 7.45,-31.76 4.98,-9.22 11.75,-16.39 20.31,-21.5 8.57,-5.11 18.04,-7.66 28.42,-7.66 9.36,0 17.54,1.83 24.52,5.51 6.98,3.67 12.57,8.24 16.74,13.72l0 -17.29 24.85 0 0 119.05 -24.85 0 0 -17.71c-4.17,5.61 -9.86,10.3 -17.07,14.04 -7.21,3.75 -15.41,5.62 -24.63,5.62 -10.23,0 -19.59,-2.63 -28.08,-7.88 -8.51,-5.26 -15.24,-12.61 -20.21,-22.05 -4.97,-9.44 -7.45,-20.12 -7.45,-32.09zm97.45 0.44c0,-8.21 -1.7,-15.35 -5.08,-21.39 -3.39,-6.05 -7.82,-10.66 -13.29,-13.83 -5.47,-3.17 -11.38,-4.75 -17.71,-4.75 -6.34,0 -12.24,1.55 -17.72,4.64 -5.47,3.1 -9.9,7.63 -13.28,13.61 -3.39,5.98 -5.08,13.08 -5.08,21.28 0,8.22 1.69,15.41 5.08,21.61 3.38,6.2 7.85,10.91 13.39,14.16 5.55,3.24 11.42,4.86 17.62,4.86 6.33,0 12.24,-1.59 17.71,-4.75 5.47,-3.17 9.9,-7.82 13.29,-13.94 3.38,-6.13 5.08,-13.29 5.08,-21.5z"/>
    <path id="_6_23" class="fil4" d="M2435.04 902.82c3.6,-7.2 8.39,-12.78 14.36,-16.74 5.98,-3.97 13.08,-5.94 21.28,-5.94l0 25.5 -6.26 0c-9.66,0 -16.96,2.45 -21.93,7.35 -4.98,4.9 -7.45,13.39 -7.45,25.5l0 62.66 -24.63 0 0 -119.05 24.63 0 0 20.74z"/>
    <path id="_7_24" class="fil4" d="M2637.49 880.14c9.37,0 17.75,1.94 25.18,5.83 7.41,3.9 13.25,9.66 17.5,17.29 4.25,7.63 6.37,16.85 6.37,27.66l0 70.22 -24.42 0 0 -66.54c0,-10.67 -2.67,-18.83 -7.99,-24.52 -5.33,-5.69 -12.61,-8.53 -21.83,-8.53 -9.22,0 -16.52,2.84 -21.93,8.53 -5.4,5.69 -8.11,13.86 -8.11,24.52l0 66.54 -24.42 0 0 -66.54c0,-10.67 -2.66,-18.83 -7.99,-24.52 -5.33,-5.69 -12.61,-8.53 -21.83,-8.53 -9.22,0 -16.52,2.84 -21.93,8.53 -5.4,5.69 -8.1,13.86 -8.1,24.52l0 66.54 -24.63 0 0 -119.05 24.63 0 0 13.61c4.03,-4.9 9.14,-8.71 15.34,-11.45 6.2,-2.74 12.83,-4.1 19.89,-4.1 9.51,0 18,2.01 25.5,6.05 7.48,4.03 13.24,9.86 17.28,17.51 3.61,-7.21 9.22,-12.94 16.86,-17.18 7.63,-4.25 15.84,-6.37 24.62,-6.37z"/>
    <path id="_8_25" class="fil4" d="M2709.66 941.07c0,-11.95 2.49,-22.54 7.45,-31.76 4.98,-9.22 11.75,-16.39 20.31,-21.5 8.57,-5.11 18.04,-7.66 28.42,-7.66 9.36,0 17.54,1.83 24.52,5.51 6.98,3.67 12.57,8.24 16.74,13.72l0 -17.29 24.85 0 0 119.05 -24.85 0 0 -17.71c-4.17,5.61 -9.86,10.3 -17.07,14.04 -7.21,3.75 -15.41,5.62 -24.63,5.62 -10.23,0 -19.59,-2.63 -28.08,-7.88 -8.51,-5.26 -15.24,-12.61 -20.21,-22.05 -4.97,-9.44 -7.45,-20.12 -7.45,-32.09zm97.45 0.44c0,-8.21 -1.7,-15.35 -5.08,-21.39 -3.39,-6.05 -7.82,-10.66 -13.29,-13.83 -5.47,-3.17 -11.38,-4.75 -17.71,-4.75 -6.34,0 -12.24,1.55 -17.72,4.64 -5.47,3.1 -9.9,7.63 -13.28,13.61 -3.39,5.98 -5.08,13.08 -5.08,21.28 0,8.22 1.69,15.41 5.08,21.61 3.38,6.2 7.85,10.91 13.39,14.16 5.55,3.24 11.42,4.86 17.62,4.86 6.33,0 12.24,-1.59 17.71,-4.75 5.47,-3.17 9.9,-7.82 13.29,-13.94 3.38,-6.13 5.08,-13.29 5.08,-21.5z"/>
    <path id="_9_26" class="fil4" d="M2856.15 941.5c0,-12.24 2.49,-23.01 7.45,-32.31 4.98,-9.29 11.86,-16.46 20.64,-21.49 8.79,-5.05 18.87,-7.56 30.25,-7.56 14.4,0 26.32,3.42 35.76,10.26 9.44,6.84 15.81,16.6 19.12,29.28l-26.58 0c-2.16,-5.91 -5.62,-10.52 -10.37,-13.83 -4.76,-3.32 -10.74,-4.98 -17.93,-4.98 -10.09,0 -18.12,3.57 -24.1,10.7 -5.98,7.13 -8.96,17.11 -8.96,29.93 0,12.82 2.98,22.83 8.96,30.04 5.98,7.2 14.01,10.81 24.1,10.81 14.25,0 23.69,-6.26 28.3,-18.8l26.58 0c-3.46,12.1 -9.94,21.72 -19.45,28.85 -9.51,7.14 -21.31,10.7 -35.43,10.7 -11.38,0 -21.46,-2.56 -30.25,-7.67 -8.78,-5.11 -15.66,-12.31 -20.64,-21.6 -4.97,-9.3 -7.45,-20.06 -7.45,-32.31z"/>
    <path id="_10" class="fil4" d="M3103.12 938.26c0,4.17 -0.29,8.07 -0.86,11.67l-91.18 0c0.71,9.94 4.24,17.82 10.59,23.66 6.33,5.83 14.19,8.75 23.55,8.75 13.25,0 22.61,-5.55 28.08,-16.64l26.58 0c-3.6,10.95 -10.12,19.91 -19.55,26.9 -9.44,6.99 -21.14,10.48 -35.11,10.48 -11.38,0 -21.57,-2.56 -30.58,-7.67 -9,-5.11 -16.06,-12.31 -21.17,-21.6 -5.12,-9.3 -7.67,-20.06 -7.67,-32.31 0,-12.24 2.49,-23.01 7.45,-32.31 4.98,-9.29 11.96,-16.46 20.97,-21.49 9,-5.05 19.34,-7.56 31.01,-7.56 11.23,0 21.24,2.45 30.03,7.35 8.79,4.9 15.63,11.74 20.53,20.52 4.9,8.79 7.35,18.87 7.35,30.25zm-25.71 -6.05c-0.14,-9.66 -3.34,-17.29 -9.62,-22.91 -6.26,-5.61 -14.15,-8.43 -23.65,-8.43 -8.64,0 -16.03,2.82 -22.16,8.43 -6.12,5.62 -9.68,13.25 -10.69,22.91l66.11 0z"/>
    <path id="_11" class="fil4" d="M3235.14 882.09l0 119.05 -24.62 0 0 -14.05c-3.9,4.9 -8.97,8.75 -15.24,11.56 -6.26,2.82 -12.93,4.21 -19.98,4.21 -9.37,0 -17.75,-1.94 -25.18,-5.83 -7.41,-3.89 -13.25,-9.66 -17.5,-17.29 -4.25,-7.63 -6.37,-16.85 -6.37,-27.66l0 -70 24.42 0 0 66.34c0,10.66 2.67,18.83 7.99,24.51 5.33,5.69 12.61,8.53 21.83,8.53 9.22,0 16.52,-2.84 21.93,-8.53 5.4,-5.68 8.11,-13.86 8.11,-24.51l0 -66.34 24.62 0z"/>
    <path id="_12" class="fil4" d="M3296.29 902.18l0 65.9c0,4.47 1.04,7.67 3.13,9.62 2.09,1.94 5.65,2.91 10.7,2.91l15.13 0 0 20.53 -19.45 0c-11.09,0 -19.59,-2.6 -25.5,-7.78 -5.91,-5.18 -8.86,-13.61 -8.86,-25.28l0 -65.9 -14.05 0 0 -20.09 14.05 0 0 -29.6 24.85 0 0 29.6 28.96 0 0 20.09 -28.96 0z"/>
    <path id="_13" class="fil4" d="M3360.46 866.31c-4.46,0 -8.21,-1.52 -11.23,-4.54 -3.03,-3.02 -4.54,-6.77 -4.54,-11.24 0,-4.46 1.51,-8.21 4.54,-11.23 3.02,-3.02 6.77,-4.54 11.23,-4.54 4.32,0 7.99,1.52 11.02,4.54 3.02,3.02 4.53,6.77 4.53,11.23 0,4.47 -1.51,8.22 -4.53,11.24 -3.03,3.02 -6.7,4.54 -11.02,4.54zm12.1 15.77l0 119.05 -24.63 0 0 -119.05 24.63 0z"/>
    <path id="_14" class="fil4" d="M3396.75 941.5c0,-12.24 2.49,-23.01 7.45,-32.31 4.98,-9.29 11.86,-16.46 20.64,-21.49 8.79,-5.05 18.87,-7.56 30.25,-7.56 14.4,0 26.32,3.42 35.76,10.26 9.44,6.84 15.81,16.6 19.12,29.28l-26.58 0c-2.16,-5.91 -5.62,-10.52 -10.37,-13.83 -4.76,-3.32 -10.74,-4.98 -17.93,-4.98 -10.09,0 -18.12,3.57 -24.1,10.7 -5.98,7.13 -8.96,17.11 -8.96,29.93 0,12.82 2.98,22.83 8.96,30.04 5.98,7.2 14.01,10.81 24.1,10.81 14.25,0 23.69,-6.26 28.3,-18.8l26.58 0c-3.46,12.1 -9.94,21.72 -19.45,28.85 -9.51,7.14 -21.31,10.7 -35.43,10.7 -11.38,0 -21.46,-2.56 -30.25,-7.67 -8.78,-5.11 -15.66,-12.31 -20.64,-21.6 -4.97,-9.3 -7.45,-20.06 -7.45,-32.31z"/>
    <path id="_15" class="fil4" d="M3526.39 941.07c0,-11.95 2.49,-22.54 7.45,-31.76 4.98,-9.22 11.75,-16.39 20.31,-21.5 8.57,-5.11 18.04,-7.66 28.42,-7.66 9.36,0 17.54,1.83 24.52,5.51 6.98,3.67 12.57,8.24 16.74,13.72l0 -17.29 24.85 0 0 119.05 -24.85 0 0 -17.71c-4.17,5.61 -9.86,10.3 -17.07,14.04 -7.21,3.75 -15.41,5.62 -24.63,5.62 -10.23,0 -19.59,-2.63 -28.08,-7.88 -8.51,-5.26 -15.24,-12.61 -20.21,-22.05 -4.97,-9.44 -7.45,-20.12 -7.45,-32.09zm97.45 0.44c0,-8.21 -1.7,-15.35 -5.08,-21.39 -3.39,-6.05 -7.82,-10.66 -13.29,-13.83 -5.47,-3.17 -11.38,-4.75 -17.71,-4.75 -6.34,0 -12.24,1.55 -17.72,4.64 -5.47,3.1 -9.9,7.63 -13.28,13.61 -3.39,5.98 -5.08,13.08 -5.08,21.28 0,8.22 1.69,15.41 5.08,21.61 3.38,6.2 7.85,10.91 13.39,14.16 5.55,3.24 11.42,4.86 17.62,4.86 6.33,0 12.24,-1.59 17.71,-4.75 5.47,-3.17 9.9,-7.82 13.29,-13.94 3.38,-6.13 5.08,-13.29 5.08,-21.5z"/>
    <polygon id="_16" class="fil4" points="3705.73,841.24 3705.73,1001.14 3681.1,1001.14 3681.1,841.24 "/>
    <polygon id="_17" class="fil4" points="3899.97,850.97 3899.97,870.2 3860,870.2 3860,1001.14 3835.36,1001.14 3835.36,870.2 3795.18,870.2 3795.18,850.97 "/>
    <path id="_18" class="fil4" d="M3949.46 902.82c3.6,-7.2 8.39,-12.78 14.36,-16.74 5.98,-3.97 13.08,-5.94 21.28,-5.94l0 25.5 -6.26 0c-9.66,0 -16.96,2.45 -21.93,7.35 -4.98,4.9 -7.45,13.39 -7.45,25.5l0 62.66 -24.63 0 0 -119.05 24.63 0 0 20.74z"/>
    <path id="_19" class="fil4" d="M3999.58 941.07c0,-11.95 2.49,-22.54 7.45,-31.76 4.98,-9.22 11.75,-16.39 20.31,-21.5 8.57,-5.11 18.04,-7.66 28.42,-7.66 9.36,0 17.54,1.83 24.52,5.51 6.98,3.67 12.57,8.24 16.74,13.72l0 -17.29 24.85 0 0 119.05 -24.85 0 0 -17.71c-4.17,5.61 -9.86,10.3 -17.07,14.04 -7.21,3.75 -15.41,5.62 -24.63,5.62 -10.23,0 -19.59,-2.63 -28.08,-7.88 -8.51,-5.26 -15.24,-12.61 -20.21,-22.05 -4.97,-9.44 -7.45,-20.12 -7.45,-32.09zm97.45 0.44c0,-8.21 -1.7,-15.35 -5.08,-21.39 -3.39,-6.05 -7.82,-10.66 -13.29,-13.83 -5.47,-3.17 -11.38,-4.75 -17.71,-4.75 -6.34,0 -12.24,1.55 -17.72,4.64 -5.47,3.1 -9.9,7.63 -13.28,13.61 -3.39,5.98 -5.08,13.08 -5.08,21.28 0,8.22 1.69,15.41 5.08,21.61 3.38,6.2 7.85,10.91 13.39,14.16 5.55,3.24 11.42,4.86 17.62,4.86 6.33,0 12.24,-1.59 17.71,-4.75 5.47,-3.17 9.9,-7.82 13.29,-13.94 3.38,-6.13 5.08,-13.29 5.08,-21.5z"/>
    <path id="_20" class="fil4" d="M4146.07 941.07c0,-11.95 2.49,-22.54 7.45,-31.76 4.98,-9.22 11.75,-16.39 20.31,-21.5 8.57,-5.11 18.12,-7.66 28.64,-7.66 7.77,0 15.44,1.69 23.01,5.08 7.56,3.38 13.57,7.89 18.04,13.5l0 -57.47 24.85 0 0 159.89 -24.85 0 0 -17.93c-4.03,5.76 -9.62,10.52 -16.74,14.25 -7.14,3.75 -15.31,5.62 -24.52,5.62 -10.38,0 -19.85,-2.63 -28.42,-7.88 -8.56,-5.26 -15.34,-12.61 -20.31,-22.05 -4.97,-9.44 -7.45,-20.12 -7.45,-32.09zm97.45 0.44c0,-8.21 -1.7,-15.35 -5.08,-21.39 -3.39,-6.05 -7.82,-10.66 -13.29,-13.83 -5.47,-3.17 -11.38,-4.75 -17.71,-4.75 -6.34,0 -12.24,1.55 -17.72,4.64 -5.47,3.1 -9.9,7.63 -13.28,13.61 -3.39,5.98 -5.08,13.08 -5.08,21.28 0,8.22 1.69,15.41 5.08,21.61 3.38,6.2 7.85,10.91 13.39,14.16 5.55,3.24 11.42,4.86 17.62,4.86 6.33,0 12.24,-1.59 17.71,-4.75 5.47,-3.17 9.9,-7.82 13.29,-13.94 3.38,-6.13 5.08,-13.29 5.08,-21.5z"/>
    <path id="_21" class="fil4" d="M4313.31 866.31c-4.46,0 -8.21,-1.52 -11.23,-4.54 -3.03,-3.02 -4.54,-6.77 -4.54,-11.24 0,-4.46 1.51,-8.21 4.54,-11.23 3.02,-3.02 6.77,-4.54 11.23,-4.54 4.32,0 7.99,1.52 11.02,4.54 3.02,3.02 4.53,6.77 4.53,11.23 0,4.47 -1.51,8.22 -4.53,11.24 -3.03,3.02 -6.7,4.54 -11.02,4.54zm12.1 15.77l0 119.05 -24.63 0 0 -119.05 24.63 0z"/>
    <path id="_22" class="fil4" d="M4417.88 880.14c9.37,0 17.75,1.94 25.18,5.83 7.41,3.9 13.21,9.66 17.39,17.29 4.18,7.63 6.26,16.85 6.26,27.66l0 70.22 -24.42 0 0 -66.54c0,-10.67 -2.66,-18.83 -7.99,-24.52 -5.33,-5.69 -12.61,-8.53 -21.83,-8.53 -9.22,0 -16.52,2.84 -21.93,8.53 -5.4,5.69 -8.1,13.86 -8.1,24.52l0 66.54 -24.63 0 0 -119.05 24.63 0 0 13.61c4.03,-4.9 9.18,-8.71 15.44,-11.45 6.26,-2.74 12.93,-4.1 19.98,-4.1z"/>
    <path id="_23" class="fil4" d="M4546.01 880.14c9.22,0 17.39,1.83 24.52,5.51 7.13,3.67 12.71,8.24 16.74,13.72l0 -17.29 24.85 0 0 121c0,10.95 -2.31,20.71 -6.92,29.28 -4.61,8.56 -11.27,15.31 -19.98,20.2 -8.71,4.9 -19.12,7.35 -31.23,7.35 -16.13,0 -29.53,-3.79 -40.19,-11.35 -10.66,-7.55 -16.71,-17.82 -18.15,-30.79l24.42 0c1.87,6.2 5.87,11.2 11.99,15.02 6.12,3.82 13.43,5.73 21.93,5.73 9.94,0 17.97,-3.02 24.1,-9.08 6.12,-6.05 9.18,-14.83 9.18,-26.36l0 -19.88c-4.17,5.62 -9.83,10.33 -16.96,14.16 -7.13,3.82 -15.24,5.72 -24.31,5.72 -10.38,0 -19.85,-2.63 -28.42,-7.88 -8.56,-5.26 -15.34,-12.61 -20.31,-22.05 -4.97,-9.44 -7.45,-20.12 -7.45,-32.09 0,-11.95 2.49,-22.54 7.45,-31.76 4.98,-9.22 11.75,-16.39 20.31,-21.5 8.57,-5.11 18.04,-7.66 28.42,-7.66zm41.27 61.36c0,-8.21 -1.7,-15.35 -5.08,-21.39 -3.39,-6.05 -7.82,-10.66 -13.29,-13.83 -5.47,-3.17 -11.38,-4.75 -17.71,-4.75 -6.34,0 -12.24,1.55 -17.72,4.64 -5.47,3.1 -9.9,7.63 -13.28,13.61 -3.39,5.98 -5.08,13.08 -5.08,21.28 0,8.22 1.69,15.41 5.08,21.61 3.38,6.2 7.85,10.91 13.39,14.16 5.55,3.24 11.42,4.86 17.62,4.86 6.33,0 12.24,-1.59 17.71,-4.75 5.47,-3.17 9.9,-7.82 13.29,-13.94 3.38,-6.13 5.08,-13.29 5.08,-21.5z"/>
    <polygon id="_24" class="fil4" points="4829.27,850.97 4829.27,1001.14 4804.64,1001.14 4804.64,934.8 4733.99,934.8 4733.99,1001.14 4709.36,1001.14 4709.36,850.97 4733.99,850.97 4733.99,915.79 4804.64,915.79 4804.64,850.97 "/>
    <path id="_25" class="fil4" d="M4969.5 882.09l0 119.05 -24.62 0 0 -14.05c-3.9,4.9 -8.97,8.75 -15.24,11.56 -6.26,2.82 -12.93,4.21 -19.98,4.21 -9.37,0 -17.75,-1.94 -25.18,-5.83 -7.41,-3.89 -13.25,-9.66 -17.5,-17.29 -4.25,-7.63 -6.37,-16.85 -6.37,-27.66l0 -70 24.42 0 0 66.34c0,10.66 2.67,18.83 7.99,24.51 5.33,5.69 12.61,8.53 21.83,8.53 9.22,0 16.52,-2.84 21.93,-8.53 5.4,-5.68 8.11,-13.86 8.11,-24.51l0 -66.34 24.62 0z"/>
    <path id="_26" class="fil4" d="M5026.55 899.8c4.17,-5.76 9.9,-10.48 17.17,-14.15 7.28,-3.68 15.38,-5.51 24.32,-5.51 10.51,0 20.02,2.52 28.52,7.56 8.5,5.04 15.2,12.2 20.09,21.49 4.9,9.3 7.35,19.91 7.35,31.87 0,11.96 -2.45,22.65 -7.35,32.09 -4.9,9.44 -11.63,16.78 -20.2,22.05 -8.57,5.25 -18.04,7.88 -28.41,7.88 -9.22,0 -17.4,-1.79 -24.52,-5.4 -7.14,-3.6 -12.79,-8.21 -16.96,-13.83l0 17.29 -24.63 0 0 -159.89 24.63 0 0 58.56zm72.38 41.27c0,-8.21 -1.7,-15.31 -5.09,-21.28 -3.38,-5.98 -7.85,-10.51 -13.39,-13.61 -5.54,-3.09 -11.49,-4.64 -17.82,-4.64 -6.2,0 -12.06,1.58 -17.62,4.75 -5.54,3.17 -10.01,7.78 -13.39,13.83 -3.39,6.05 -5.08,13.18 -5.08,21.39 0,8.21 1.69,15.37 5.08,21.5 3.38,6.12 7.85,10.77 13.39,13.94 5.55,3.16 11.42,4.75 17.62,4.75 6.33,0 12.28,-1.62 17.82,-4.86 5.54,-3.24 10.01,-7.96 13.39,-14.16 3.39,-6.2 5.09,-13.39 5.09,-21.61z"/>
   </g>
  </g>
 </g>
</svg>
