<?xml version="1.0" encoding="UTF-8"?>
<!DOCTYPE svg PUBLIC "-//W3C//DTD SVG 1.1//EN" "http://www.w3.org/Graphics/SVG/1.1/DTD/svg11.dtd">
<!-- Creator: CorelDRAW -->
<svg xmlns="http://www.w3.org/2000/svg" xml:space="preserve" width="51.6903mm" height="13.737mm" version="1.1" style="shape-rendering:geometricPrecision; text-rendering:geometricPrecision; image-rendering:optimizeQuality; fill-rule:evenodd; clip-rule:evenodd"
viewBox="0 0 5168.22 1373.48"
 xmlns:xlink="http://www.w3.org/1999/xlink"
 xmlns:xodm="http://www.corel.com/coreldraw/odm/2003">
 <defs>
  <style type="text/css">
   <![CDATA[
    .fil0 {fill:#FEFEFE}
    .fil4 {fill:#FEFEFE;fill-rule:nonzero}
    .fil2 {fill:#02C9B8;fill-rule:nonzero}
    .fil1 {fill:#2490EB;fill-rule:nonzero}
    .fil3 {fill:#DFEFF2;fill-rule:nonzero}
   ]]>
  </style>
 </defs>
 <g id="Layer_x0020_1">
  <metadata id="CorelCorpID_0Corel-Layer"/>
  <g id="_2627902120992">
   <g>
    <circle class="fil0" cx="686.74" cy="686.74" r="686.74"/>
    <path class="fil1" d="M1116.57 539.52l-248.78 0 0 -296.38c0,-46.8 -37.94,-84.74 -84.74,-84.74l-263.16 0c-46.8,0 -84.74,37.93 -84.74,84.74 0,18.5 3.3,36.83 9.73,54.17 19.92,53.71 73.01,168.64 182.7,242.21 11.2,7.52 22.99,14.62 35.4,21.16 7.05,3.72 14.34,6.94 21.8,9.79 27.52,10.54 111.21,44.36 182.99,91.75 54.83,36.19 102.71,80.29 113.3,127.97 0,0 -54.87,-37.19 -113.3,-60.29 -38.7,-15.3 -78.97,-24.42 -105.89,-12.43 -16.2,7.21 -24.44,25.46 -19.83,42.58 10.1,37.65 35.14,128.38 63.52,212.11 20.45,60.36 42.63,117.07 62.2,147.65l0 -147.65 264.4 0c64.47,0 116.72,-52.25 116.72,-116.72l0 -183.56c0.01,-73.09 -59.25,-132.35 -132.34,-132.35l0.01 0zm-430.77 10.3c-14.19,0 -27.48,-3.75 -38.98,-10.3 -23.88,-13.58 -39.99,-39.23 -39.99,-68.67 0,-43.61 35.36,-78.97 78.98,-78.97 43.61,0 78.97,35.35 78.97,78.97 0,29.44 -16.11,55.09 -39.98,68.67 -11.51,6.55 -24.81,10.3 -38.98,10.3z"/>
    <path class="fil2" d="M769.68 1052.98c-6.47,-9.92 -13.21,-19.64 -20.67,-28.84 -11.56,-14.26 -28.35,-33.97 -46.34,-52 -16.91,-16.94 -34.9,-32.38 -50.7,-40.4 -14.48,-7.33 -32.11,-1.95 -39.98,12.26 -3.81,6.88 -7.92,16.14 -11.37,28.15 -2.61,9.12 -4.84,19.83 -6.26,32.3 -1.67,14.8 -3.85,29.53 -6.96,44.1 -6.55,30.76 -18.16,79.66 -31.51,111.01 -1.87,4.39 -8.35,3.32 -8.69,-1.44 -2.37,-32.65 -7.44,-108.81 -9.47,-185.98 -1.31,-49.71 -1.36,-99.83 1.4,-139.02 1.39,-19.7 1.25,-39.44 -0.48,-59.11l-8.38 -95.62c-3.65,-41.49 -15.41,-81.82 -34.5,-118.83 -3.25,-6.32 -6.65,-13.05 -10.08,-20.06 -22.43,-45.76 -46.94,-104.29 -50.55,-147.65l0 147.65 -290.5 0c-0.89,14.25 -1.35,28.56 -1.35,42.92 0,144.81 45.43,279.19 122.74,389.71l169.11 0 0 169.11c110.52,77.31 244.9,122.74 389.71,122.74 14.29,0 28.62,-0.48 42.92,-1.37l0 -104.58c0,0 -75.02,-69.65 -98.08,-105.06l-0.01 0z"/>
    <path class="fil1" d="M867.78 1307.38c-14.2,0.83 -28.52,1.27 -42.92,1.27 -143.42,0 -277.1,-41.59 -389.71,-113.34 -89.7,-57.16 -165.99,-133.46 -223.15,-223.15 -71.76,-112.6 -113.35,-246.29 -113.35,-389.71 0,-14.42 0.47,-28.72 1.3,-42.92 4.27,-73.07 19.31,-143.25 43.6,-208.95 -31.43,64.86 -52.97,135.43 -62.82,209.72 -3.99,30.09 -6.11,60.76 -6.11,91.95 0,123.59 32.35,239.57 88.98,339.92 63.64,112.78 157.94,205.79 271.55,267.54 97.03,52.74 208.13,82.69 326.19,82.69 36.2,0 71.75,-2.85 106.44,-8.28 22.16,-3.46 43.97,-7.96 65.37,-13.5 -21.5,3.22 -43.3,5.48 -65.37,6.78l0 -0.01z"/>
   </g>
   <rect class="fil0" x="1535.08" y="768.23" width="3632.98" height="39.86"/>
   <polygon class="fil3" points="1645.99,858.32 1645.99,877.7 1605.67,877.7 1605.67,1009.78 1580.82,1009.78 1580.82,877.7 1540.29,877.7 1540.29,858.32 "/>
   <path id="_1_18" class="fil3" d="M1733.17 887.73c9.15,0 17.33,1.96 24.52,5.88 7.19,3.93 12.86,9.74 17,17.44 4.14,7.7 6.21,17 6.21,27.9l0 70.83 -24.63 0 0 -67.11c0,-10.76 -2.68,-19 -8.06,-24.74 -5.38,-5.74 -12.72,-8.6 -22.02,-8.6 -9.3,0 -16.67,2.86 -22.12,8.6 -5.45,5.74 -8.17,13.98 -8.17,24.74l0 67.11 -24.85 0 0 -161.27 24.85 0 0 55.14c4.21,-5.09 9.55,-9.01 16.02,-11.77 6.46,-2.76 13.55,-4.14 21.25,-4.14z"/>
   <path id="_2_19" class="fil3" d="M1922.55 946.35c0,4.21 -0.29,8.14 -0.87,11.77l-91.97 0c0.72,10.03 4.28,17.98 10.68,23.87 6.39,5.88 14.31,8.83 23.76,8.83 13.37,0 22.81,-5.6 28.33,-16.79l26.81 0c-3.63,11.05 -10.21,20.09 -19.72,27.14 -9.52,7.05 -21.33,10.57 -35.41,10.57 -11.48,0 -21.76,-2.58 -30.85,-7.74 -9.08,-5.15 -16.2,-12.42 -21.36,-21.79 -5.17,-9.38 -7.74,-20.24 -7.74,-32.58 0,-12.35 2.51,-23.21 7.52,-32.58 5.02,-9.37 12.07,-16.6 21.15,-21.68 9.08,-5.09 19.51,-7.63 31.28,-7.63 11.33,0 21.43,2.47 30.29,7.41 8.87,4.94 15.77,11.84 20.71,20.7 4.94,8.87 7.41,19.04 7.41,30.52zm-25.93 -6.1c-0.14,-9.74 -3.37,-17.44 -9.7,-23.11 -6.32,-5.66 -14.27,-8.5 -23.86,-8.5 -8.72,0 -16.17,2.84 -22.35,8.5 -6.17,5.67 -9.77,13.37 -10.78,23.11l66.68 0z"/>
   <path id="_3_20" class="fil3" d="M2118.27 903.43c0,7.7 -1.82,14.97 -5.45,21.8 -3.63,6.83 -9.44,12.39 -17.44,16.67 -7.99,4.29 -18.23,6.43 -30.73,6.43l-27.46 0 0 61.46 -24.85 0 0 -151.47 52.3 0c11.63,0 21.47,2 29.54,6 8.06,3.99 14.09,9.4 18.09,16.23 3.99,6.83 5.99,14.46 5.99,22.89zm-53.61 25.5c9.45,0 16.49,-2.25 21.14,-6.75 4.65,-4.51 6.98,-10.76 6.98,-18.75 0,-8.14 -2.33,-14.46 -6.98,-18.96 -4.65,-4.51 -11.69,-6.76 -21.14,-6.76l-27.46 0 0 51.21 27.46 0z"/>
   <path id="_4_21" class="fil3" d="M2204.13 887.73c9.15,0 17.33,1.96 24.52,5.88 7.19,3.93 12.86,9.74 17,17.44 4.14,7.7 6.21,17 6.21,27.9l0 70.83 -24.63 0 0 -67.11c0,-10.76 -2.68,-19 -8.06,-24.74 -5.38,-5.74 -12.72,-8.6 -22.02,-8.6 -9.3,0 -16.67,2.86 -22.12,8.6 -5.45,5.74 -8.17,13.98 -8.17,24.74l0 67.11 -24.85 0 0 -161.27 24.85 0 0 55.14c4.21,-5.09 9.55,-9.01 16.02,-11.77 6.46,-2.76 13.55,-4.14 21.25,-4.14z"/>
   <path id="_5_22" class="fil3" d="M2275.16 949.19c0,-12.06 2.51,-22.74 7.52,-32.03 5.02,-9.3 11.85,-16.53 20.49,-21.69 8.65,-5.15 18.2,-7.73 28.67,-7.73 9.44,0 17.69,1.85 24.74,5.56 7.04,3.7 12.68,8.31 16.89,13.84l0 -17.44 25.07 0 0 120.08 -25.07 0 0 -17.87c-4.21,5.66 -9.95,10.39 -17.22,14.16 -7.27,3.78 -15.55,5.67 -24.85,5.67 -10.32,0 -19.76,-2.65 -28.33,-7.95 -8.58,-5.31 -15.37,-12.72 -20.39,-22.24 -5.01,-9.52 -7.52,-20.3 -7.52,-32.36zm98.29 0.44c0,-8.28 -1.71,-15.48 -5.12,-21.58 -3.42,-6.1 -7.89,-10.75 -13.41,-13.95 -5.52,-3.2 -11.48,-4.79 -17.87,-4.79 -6.4,0 -12.35,1.56 -17.88,4.68 -5.52,3.13 -9.99,7.7 -13.4,13.73 -3.42,6.03 -5.12,13.19 -5.12,21.47 0,8.29 1.7,15.55 5.12,21.8 3.41,6.25 7.92,11.01 13.51,14.28 5.6,3.27 11.52,4.9 17.77,4.9 6.39,0 12.35,-1.6 17.87,-4.79 5.52,-3.2 9.99,-7.89 13.41,-14.06 3.41,-6.18 5.12,-13.41 5.12,-21.69z"/>
   <path id="_6_23" class="fil3" d="M2456.06 910.61c3.63,-7.26 8.46,-12.89 14.49,-16.89 6.03,-4 13.19,-5.99 21.47,-5.99l0 25.72 -6.32 0c-9.74,0 -17.11,2.47 -22.12,7.41 -5.02,4.94 -7.52,13.51 -7.52,25.72l0 63.2 -24.85 0 0 -120.08 24.85 0 0 20.92z"/>
   <path id="_7_24" class="fil3" d="M2660.25 887.73c9.45,0 17.91,1.96 25.4,5.88 7.48,3.93 13.37,9.74 17.65,17.44 4.29,7.7 6.43,17 6.43,27.9l0 70.83 -24.63 0 0 -67.11c0,-10.76 -2.69,-19 -8.06,-24.74 -5.38,-5.74 -12.72,-8.6 -22.02,-8.6 -9.3,0 -16.67,2.86 -22.12,8.6 -5.45,5.74 -8.18,13.98 -8.18,24.74l0 67.11 -24.63 0 0 -67.11c0,-10.76 -2.68,-19 -8.06,-24.74 -5.38,-5.74 -12.72,-8.6 -22.02,-8.6 -9.3,0 -16.67,2.86 -22.12,8.6 -5.45,5.74 -8.17,13.98 -8.17,24.74l0 67.11 -24.85 0 0 -120.08 24.85 0 0 13.73c4.07,-4.94 9.22,-8.79 15.47,-11.55 6.25,-2.76 12.94,-4.14 20.06,-4.14 9.59,0 18.16,2.03 25.72,6.1 7.55,4.07 13.36,9.95 17.43,17.66 3.64,-7.27 9.3,-13.05 17.01,-17.33 7.7,-4.29 15.98,-6.43 24.84,-6.43z"/>
   <path id="_8_25" class="fil3" d="M2733.04 949.19c0,-12.06 2.51,-22.74 7.52,-32.03 5.02,-9.3 11.85,-16.53 20.49,-21.69 8.65,-5.15 18.2,-7.73 28.67,-7.73 9.44,0 17.69,1.85 24.74,5.56 7.04,3.7 12.68,8.31 16.89,13.84l0 -17.44 25.07 0 0 120.08 -25.07 0 0 -17.87c-4.21,5.66 -9.95,10.39 -17.22,14.16 -7.27,3.78 -15.55,5.67 -24.85,5.67 -10.32,0 -19.76,-2.65 -28.33,-7.95 -8.58,-5.31 -15.37,-12.72 -20.39,-22.24 -5.01,-9.52 -7.52,-20.3 -7.52,-32.36zm98.29 0.44c0,-8.28 -1.71,-15.48 -5.12,-21.58 -3.42,-6.1 -7.89,-10.75 -13.41,-13.95 -5.52,-3.2 -11.48,-4.79 -17.87,-4.79 -6.4,0 -12.35,1.56 -17.88,4.68 -5.52,3.13 -9.99,7.7 -13.4,13.73 -3.42,6.03 -5.12,13.19 -5.12,21.47 0,8.29 1.7,15.55 5.12,21.8 3.41,6.25 7.92,11.01 13.51,14.28 5.6,3.27 11.52,4.9 17.77,4.9 6.39,0 12.35,-1.6 17.87,-4.79 5.52,-3.2 9.99,-7.89 13.41,-14.06 3.41,-6.18 5.12,-13.41 5.12,-21.69z"/>
   <path id="_9_26" class="fil3" d="M2880.8 949.62c0,-12.35 2.51,-23.21 7.52,-32.58 5.02,-9.37 11.96,-16.6 20.82,-21.68 8.87,-5.09 19.04,-7.63 30.52,-7.63 14.53,0 26.55,3.45 36.06,10.35 9.52,6.9 15.95,16.75 19.29,29.54l-26.81 0c-2.18,-5.96 -5.67,-10.61 -10.46,-13.95 -4.8,-3.35 -10.83,-5.02 -18.09,-5.02 -10.18,0 -18.28,3.6 -24.31,10.79 -6.03,7.19 -9.04,17.26 -9.04,30.19 0,12.93 3.01,23.03 9.04,30.3 6.03,7.26 14.13,10.91 24.31,10.91 14.38,0 23.9,-6.32 28.55,-18.97l26.81 0c-3.49,12.21 -10.03,21.91 -19.62,29.1 -9.59,7.2 -21.5,10.79 -35.73,10.79 -11.48,0 -21.65,-2.58 -30.52,-7.74 -8.86,-5.15 -15.8,-12.42 -20.82,-21.79 -5.01,-9.38 -7.52,-20.24 -7.52,-32.58l0 -0.01z"/>
   <path id="_10" class="fil3" d="M3129.9 946.35c0,4.21 -0.29,8.14 -0.87,11.77l-91.97 0c0.72,10.03 4.28,17.98 10.68,23.87 6.39,5.88 14.31,8.83 23.76,8.83 13.37,0 22.81,-5.6 28.33,-16.79l26.81 0c-3.63,11.05 -10.21,20.09 -19.72,27.14 -9.52,7.05 -21.33,10.57 -35.41,10.57 -11.48,0 -21.76,-2.58 -30.85,-7.74 -9.08,-5.15 -16.2,-12.42 -21.36,-21.79 -5.17,-9.38 -7.74,-20.24 -7.74,-32.58 0,-12.35 2.51,-23.21 7.52,-32.58 5.02,-9.37 12.07,-16.6 21.15,-21.68 9.08,-5.09 19.51,-7.63 31.28,-7.63 11.33,0 21.43,2.47 30.29,7.41 8.87,4.94 15.77,11.84 20.71,20.7 4.94,8.87 7.41,19.04 7.41,30.52zm-25.93 -6.1c-0.14,-9.74 -3.37,-17.44 -9.7,-23.11 -6.32,-5.66 -14.27,-8.5 -23.86,-8.5 -8.72,0 -16.17,2.84 -22.35,8.5 -6.17,5.67 -9.77,13.37 -10.78,23.11l66.68 0z"/>
   <path id="_11" class="fil3" d="M3263.06 889.7l0 120.08 -24.84 0 0 -14.17c-3.93,4.94 -9.05,8.83 -15.37,11.66 -6.32,2.84 -13.04,4.25 -20.16,4.25 -9.45,0 -17.91,-1.96 -25.4,-5.88 -7.48,-3.92 -13.37,-9.74 -17.65,-17.44 -4.29,-7.7 -6.43,-17 -6.43,-27.9l0 -70.61 24.63 0 0 66.91c0,10.75 2.69,19 8.06,24.73 5.38,5.74 12.72,8.6 22.02,8.6 9.3,0 16.67,-2.86 22.12,-8.6 5.45,-5.73 8.18,-13.98 8.18,-24.73l0 -66.91 24.84 0z"/>
   <path id="_12" class="fil3" d="M3324.74 909.97l0 66.47c0,4.51 1.05,7.74 3.16,9.7 2.11,1.96 5.7,2.94 10.79,2.94l15.26 0 0 20.71 -19.62 0c-11.19,0 -19.76,-2.62 -25.72,-7.85 -5.96,-5.23 -8.94,-13.73 -8.94,-25.5l0 -66.47 -14.17 0 0 -20.27 14.17 0 0 -29.86 25.07 0 0 29.86 29.21 0 0 20.27 -29.21 0z"/>
   <path id="_13" class="fil3" d="M3389.47 873.78c-4.5,0 -8.28,-1.53 -11.33,-4.58 -3.06,-3.05 -4.58,-6.83 -4.58,-11.34 0,-4.5 1.52,-8.28 4.58,-11.33 3.05,-3.05 6.83,-4.58 11.33,-4.58 4.36,0 8.06,1.53 11.12,4.58 3.05,3.05 4.57,6.83 4.57,11.33 0,4.51 -1.52,8.29 -4.57,11.34 -3.06,3.05 -6.76,4.58 -11.12,4.58zm12.2 15.91l0 120.08 -24.85 0 0 -120.08 24.85 0z"/>
   <path id="_14" class="fil3" d="M3426.06 949.62c0,-12.35 2.51,-23.21 7.52,-32.58 5.02,-9.37 11.96,-16.6 20.82,-21.68 8.87,-5.09 19.04,-7.63 30.52,-7.63 14.53,0 26.55,3.45 36.06,10.35 9.52,6.9 15.95,16.75 19.29,29.54l-26.81 0c-2.18,-5.96 -5.67,-10.61 -10.46,-13.95 -4.8,-3.35 -10.83,-5.02 -18.09,-5.02 -10.18,0 -18.28,3.6 -24.31,10.79 -6.03,7.19 -9.04,17.26 -9.04,30.19 0,12.93 3.01,23.03 9.04,30.3 6.03,7.26 14.13,10.91 24.31,10.91 14.38,0 23.9,-6.32 28.55,-18.97l26.81 0c-3.49,12.21 -10.03,21.91 -19.62,29.1 -9.59,7.2 -21.5,10.79 -35.73,10.79 -11.48,0 -21.65,-2.58 -30.52,-7.74 -8.86,-5.15 -15.8,-12.42 -20.82,-21.79 -5.01,-9.38 -7.52,-20.24 -7.52,-32.58l0 -0.01z"/>
   <path id="_15" class="fil3" d="M3556.82 949.19c0,-12.06 2.51,-22.74 7.52,-32.03 5.02,-9.3 11.85,-16.53 20.49,-21.69 8.65,-5.15 18.2,-7.73 28.67,-7.73 9.44,0 17.69,1.85 24.74,5.56 7.04,3.7 12.68,8.31 16.89,13.84l0 -17.44 25.07 0 0 120.08 -25.07 0 0 -17.87c-4.21,5.66 -9.95,10.39 -17.22,14.16 -7.27,3.78 -15.55,5.67 -24.85,5.67 -10.32,0 -19.76,-2.65 -28.33,-7.95 -8.58,-5.31 -15.37,-12.72 -20.39,-22.24 -5.01,-9.52 -7.52,-20.3 -7.52,-32.36zm98.29 0.44c0,-8.28 -1.71,-15.48 -5.12,-21.58 -3.42,-6.1 -7.89,-10.75 -13.41,-13.95 -5.52,-3.2 -11.48,-4.79 -17.87,-4.79 -6.4,0 -12.35,1.56 -17.88,4.68 -5.52,3.13 -9.99,7.7 -13.4,13.73 -3.42,6.03 -5.12,13.19 -5.12,21.47 0,8.29 1.7,15.55 5.12,21.8 3.41,6.25 7.92,11.01 13.51,14.28 5.6,3.27 11.52,4.9 17.77,4.9 6.39,0 12.35,-1.6 17.87,-4.79 5.52,-3.2 9.99,-7.89 13.41,-14.06 3.41,-6.18 5.12,-13.41 5.12,-21.69z"/>
   <polygon id="_16" class="fil3" points="3737.71,848.5 3737.71,1009.78 3712.87,1009.78 3712.87,848.5 "/>
   <polygon id="_17" class="fil3" points="3933.63,858.32 3933.63,877.7 3893.32,877.7 3893.32,1009.78 3868.46,1009.78 3868.46,877.7 3827.94,877.7 3827.94,858.32 "/>
   <path id="_18" class="fil3" d="M3983.55 910.61c3.63,-7.26 8.46,-12.89 14.49,-16.89 6.03,-4 13.19,-5.99 21.47,-5.99l0 25.72 -6.32 0c-9.74,0 -17.11,2.47 -22.12,7.41 -5.02,4.94 -7.52,13.51 -7.52,25.72l0 63.2 -24.85 0 0 -120.08 24.85 0 0 20.92z"/>
   <path id="_19" class="fil3" d="M4034.1 949.19c0,-12.06 2.51,-22.74 7.52,-32.03 5.02,-9.3 11.85,-16.53 20.49,-21.69 8.65,-5.15 18.2,-7.73 28.67,-7.73 9.44,0 17.69,1.85 24.74,5.56 7.04,3.7 12.68,8.31 16.89,13.84l0 -17.44 25.07 0 0 120.08 -25.07 0 0 -17.87c-4.21,5.66 -9.95,10.39 -17.22,14.16 -7.27,3.78 -15.55,5.67 -24.85,5.67 -10.32,0 -19.76,-2.65 -28.33,-7.95 -8.58,-5.31 -15.37,-12.72 -20.39,-22.24 -5.01,-9.52 -7.52,-20.3 -7.52,-32.36zm98.29 0.44c0,-8.28 -1.71,-15.48 -5.12,-21.58 -3.42,-6.1 -7.89,-10.75 -13.41,-13.95 -5.52,-3.2 -11.48,-4.79 -17.87,-4.79 -6.4,0 -12.35,1.56 -17.88,4.68 -5.52,3.13 -9.99,7.7 -13.4,13.73 -3.42,6.03 -5.12,13.19 -5.12,21.47 0,8.29 1.7,15.55 5.12,21.8 3.41,6.25 7.92,11.01 13.51,14.28 5.6,3.27 11.52,4.9 17.77,4.9 6.39,0 12.35,-1.6 17.87,-4.79 5.52,-3.2 9.99,-7.89 13.41,-14.06 3.41,-6.18 5.12,-13.41 5.12,-21.69z"/>
   <path id="_20" class="fil3" d="M4181.85 949.19c0,-12.06 2.51,-22.74 7.52,-32.03 5.02,-9.3 11.85,-16.53 20.49,-21.69 8.65,-5.15 18.28,-7.73 28.89,-7.73 7.84,0 15.58,1.7 23.21,5.12 7.63,3.41 13.69,7.96 18.2,13.62l0 -57.97 25.07 0 0 161.27 -25.07 0 0 -18.09c-4.07,5.81 -9.7,10.61 -16.89,14.38 -7.2,3.78 -15.44,5.67 -24.74,5.67 -10.47,0 -20.02,-2.65 -28.67,-7.95 -8.64,-5.31 -15.47,-12.72 -20.49,-22.24 -5.01,-9.52 -7.52,-20.3 -7.52,-32.36zm98.29 0.44c0,-8.28 -1.71,-15.48 -5.12,-21.58 -3.42,-6.1 -7.89,-10.75 -13.41,-13.95 -5.52,-3.2 -11.48,-4.79 -17.87,-4.79 -6.4,0 -12.35,1.56 -17.88,4.68 -5.52,3.13 -9.99,7.7 -13.4,13.73 -3.42,6.03 -5.12,13.19 -5.12,21.47 0,8.29 1.7,15.55 5.12,21.8 3.41,6.25 7.92,11.01 13.51,14.28 5.6,3.27 11.52,4.9 17.77,4.9 6.39,0 12.35,-1.6 17.87,-4.79 5.52,-3.2 9.99,-7.89 13.41,-14.06 3.41,-6.18 5.12,-13.41 5.12,-21.69z"/>
   <path id="_21" class="fil3" d="M4350.54 873.78c-4.5,0 -8.28,-1.53 -11.33,-4.58 -3.06,-3.05 -4.58,-6.83 -4.58,-11.34 0,-4.5 1.52,-8.28 4.58,-11.33 3.05,-3.05 6.83,-4.58 11.33,-4.58 4.36,0 8.06,1.53 11.12,4.58 3.05,3.05 4.57,6.83 4.57,11.33 0,4.51 -1.52,8.29 -4.57,11.34 -3.06,3.05 -6.76,4.58 -11.12,4.58zm12.21 15.91l0 120.08 -24.85 0 0 -120.08 24.85 0z"/>
   <path id="_22" class="fil3" d="M4456.01 887.73c9.45,0 17.91,1.96 25.4,5.88 7.48,3.93 13.33,9.74 17.54,17.44 4.22,7.7 6.32,17 6.32,27.9l0 70.83 -24.63 0 0 -67.11c0,-10.76 -2.68,-19 -8.06,-24.74 -5.38,-5.74 -12.72,-8.6 -22.02,-8.6 -9.3,0 -16.67,2.86 -22.12,8.6 -5.45,5.74 -8.17,13.98 -8.17,24.74l0 67.11 -24.85 0 0 -120.08 24.85 0 0 13.73c4.07,-4.94 9.26,-8.79 15.58,-11.55 6.32,-2.76 13.04,-4.14 20.16,-4.14z"/>
   <path id="_23" class="fil3" d="M4585.25 887.73c9.3,0 17.54,1.85 24.74,5.56 7.19,3.7 12.82,8.31 16.89,13.84l0 -17.44 25.07 0 0 122.04c0,11.05 -2.33,20.89 -6.98,29.54 -4.65,8.64 -11.37,15.44 -20.16,20.38 -8.79,4.94 -19.29,7.41 -31.5,7.41 -16.27,0 -29.79,-3.82 -40.53,-11.45 -10.75,-7.62 -16.86,-17.98 -18.31,-31.06l24.63 0c1.89,6.25 5.92,11.3 12.1,15.15 6.17,3.85 13.55,5.78 22.12,5.78 10.03,0 18.13,-3.05 24.31,-9.16 6.17,-6.1 9.26,-14.96 9.26,-26.59l0 -20.05c-4.21,5.67 -9.92,10.42 -17.11,14.28 -7.19,3.85 -15.37,5.77 -24.52,5.77 -10.47,0 -20.02,-2.65 -28.67,-7.95 -8.64,-5.31 -15.47,-12.72 -20.49,-22.24 -5.01,-9.52 -7.52,-20.3 -7.52,-32.36 0,-12.06 2.51,-22.74 7.52,-32.03 5.02,-9.3 11.85,-16.53 20.49,-21.69 8.65,-5.15 18.2,-7.73 28.67,-7.73zm41.62 61.89c0,-8.28 -1.71,-15.48 -5.12,-21.58 -3.42,-6.1 -7.89,-10.75 -13.41,-13.95 -5.52,-3.2 -11.48,-4.79 -17.87,-4.79 -6.4,0 -12.35,1.56 -17.88,4.68 -5.52,3.13 -9.99,7.7 -13.4,13.73 -3.42,6.03 -5.12,13.19 -5.12,21.47 0,8.29 1.7,15.55 5.12,21.8 3.41,6.25 7.92,11.01 13.51,14.28 5.6,3.27 11.52,4.9 17.77,4.9 6.39,0 12.35,-1.6 17.87,-4.79 5.52,-3.2 9.99,-7.89 13.41,-14.06 3.41,-6.18 5.12,-13.41 5.12,-21.69z"/>
   <polygon id="_24" class="fil3" points="4870.96,858.32 4870.96,1009.78 4846.11,1009.78 4846.11,942.86 4774.85,942.86 4774.85,1009.78 4750.01,1009.78 4750.01,858.32 4774.85,858.32 4774.85,923.7 4846.11,923.7 4846.11,858.32 "/>
   <path id="_25" class="fil3" d="M5012.39 889.7l0 120.08 -24.84 0 0 -14.17c-3.93,4.94 -9.05,8.83 -15.37,11.66 -6.32,2.84 -13.04,4.25 -20.16,4.25 -9.45,0 -17.91,-1.96 -25.4,-5.88 -7.48,-3.92 -13.37,-9.74 -17.65,-17.44 -4.29,-7.7 -6.43,-17 -6.43,-27.9l0 -70.61 24.63 0 0 66.91c0,10.75 2.69,19 8.06,24.73 5.38,5.74 12.72,8.6 22.02,8.6 9.3,0 16.67,-2.86 22.12,-8.6 5.45,-5.73 8.18,-13.98 8.18,-24.73l0 -66.91 24.84 0z"/>
   <path id="_26" class="fil3" d="M5069.94 907.56c4.21,-5.81 9.99,-10.57 17.32,-14.27 7.34,-3.71 15.52,-5.56 24.53,-5.56 10.6,0 20.2,2.54 28.77,7.63 8.57,5.08 15.33,12.31 20.27,21.68 4.94,9.38 7.41,20.09 7.41,32.14 0,12.07 -2.47,22.85 -7.41,32.36 -4.94,9.52 -11.73,16.93 -20.38,22.24 -8.65,5.3 -18.2,7.95 -28.66,7.95 -9.3,0 -17.55,-1.81 -24.74,-5.45 -7.2,-3.63 -12.9,-8.28 -17.11,-13.95l0 17.44 -24.85 0 0 -161.27 24.85 0 0 59.06zm73.01 41.63c0,-8.28 -1.71,-15.44 -5.13,-21.47 -3.41,-6.03 -7.92,-10.6 -13.51,-13.73 -5.59,-3.12 -11.59,-4.68 -17.98,-4.68 -6.25,0 -12.17,1.59 -17.77,4.79 -5.59,3.2 -10.1,7.85 -13.51,13.95 -3.42,6.1 -5.12,13.3 -5.12,21.58 0,8.28 1.7,15.51 5.12,21.69 3.41,6.17 7.92,10.86 13.51,14.06 5.6,3.19 11.52,4.79 17.77,4.79 6.39,0 12.39,-1.63 17.98,-4.9 5.59,-3.27 10.1,-8.03 13.51,-14.28 3.42,-6.25 5.13,-13.51 5.13,-21.8z"/>
   <path class="fil4" d="M1899.29 364.33c0,29.19 -6.76,55.64 -20.26,79.39 -13.51,23.74 -33.43,42.57 -59.78,56.51 -26.36,13.94 -58.26,20.91 -95.72,20.91l-57.5 0 0 147.01 -145.05 0 0 -462.58 202.55 0c56.62,0 100.06,14.38 130.34,43.12 30.28,28.75 45.41,67.3 45.41,115.64zm-192.09 42.47c30.06,0 45.08,-14.16 45.08,-42.47 0,-28.32 -15.03,-42.46 -45.08,-42.46l-41.16 0 0 84.94 41.16 0z"/>
   <path id="_1" class="fil4" d="M2203.1 297.03c42.25,0 75.25,14.16 98.98,42.47 23.74,28.32 35.6,66.64 35.6,114.99l0 213.65 -144.39 0 0 -195.35c0,-17.43 -4.69,-31.26 -14.05,-41.49 -9.37,-10.24 -21.89,-15.36 -37.57,-15.36 -16.11,0 -28.75,5.12 -37.89,15.36 -9.14,10.24 -13.72,24.07 -13.72,41.49l0 195.35 -145.05 0 0 -483.48 145.05 0 0 171.18c11.33,-17.43 26.47,-31.59 45.41,-42.47 18.95,-10.89 41.48,-16.34 67.62,-16.34z"/>
   <path id="_2" class="fil4" d="M2380.82 483.89c0,-38.76 6.64,-72.41 19.93,-100.94 13.29,-28.53 31.47,-50.3 54.55,-65.33 23.09,-15.03 49,-22.55 77.76,-22.55 23.96,0 44.64,4.91 62.06,14.71 17.43,9.8 30.72,23.2 39.86,40.17l0 -50.3 144.39 0 0 368.49 -144.39 0 0 -50.31c-9.15,16.99 -22.44,30.39 -39.86,40.18 -17.42,9.8 -38.1,14.7 -62.06,14.7 -28.76,0 -54.67,-7.51 -77.76,-22.54 -23.09,-15.03 -41.26,-36.8 -54.55,-65.34 -13.29,-28.53 -19.93,-62.17 -19.93,-100.94zm254.16 0c0,-19.6 -5.01,-34.84 -15.03,-45.73 -10.02,-10.89 -22.88,-16.33 -38.55,-16.33 -15.68,0 -28.53,5.44 -38.54,16.33 -10.02,10.89 -15.03,26.14 -15.03,45.73 0,19.61 5.01,34.85 15.03,45.74 10.02,10.89 22.87,16.33 38.54,16.33 15.68,0 28.54,-5.44 38.55,-16.33 10.02,-10.89 15.03,-26.14 15.03,-45.74z"/>
   <path id="_3" class="fil4" d="M2989.74 367.6c14.81,-21.35 32.88,-38.44 54.23,-51.29 21.34,-12.85 43.55,-19.28 66.64,-19.28l0 154.85 -41.16 0c-27.44,0 -47.58,4.8 -60.43,14.38 -12.85,9.58 -19.28,26.57 -19.28,50.96l0 150.93 -145.05 0 0 -368.49 145.05 0 0 67.95z"/>
   <path id="_4" class="fil4" d="M3641.8 297.03c47.04,0 83.52,14.16 109.43,42.47 25.92,28.32 38.87,66.64 38.87,114.99l0 213.65 -144.39 0 0 -195.35c0,-15.69 -4.68,-27.99 -14.05,-36.92 -9.37,-8.93 -21.89,-13.39 -37.56,-13.39 -16.12,0 -28.76,4.46 -37.89,13.39 -9.15,8.94 -13.73,21.24 -13.73,36.92l0 195.35 -144.39 0 0 -195.35c0,-15.69 -4.69,-27.99 -14.05,-36.92 -9.37,-8.93 -21.89,-13.39 -37.57,-13.39 -16.11,0 -28.75,4.46 -37.89,13.39 -9.14,8.94 -13.72,21.24 -13.72,36.92l0 195.35 -145.05 0 0 -368.49 145.05 0 0 49.65c10.46,-15.68 24.72,-28.32 42.79,-37.89 18.08,-9.58 39.31,-14.38 63.71,-14.38 26.57,0 50.08,5.78 70.56,17.32 20.47,11.55 36.8,27.77 49,48.67 13.5,-19.16 30.71,-34.95 51.61,-47.36 20.91,-12.42 43.99,-18.63 69.26,-18.63z"/>
   <polygon id="_5" class="fil4" points="4296.46,668.15 4151.41,668.15 3997.87,435.55 3997.87,668.15 3852.83,668.15 3852.83,205.57 3997.87,205.57 4151.41,442.08 4151.41,205.57 4296.46,205.57 "/>
   <path id="_6" class="fil4" d="M4718.53 480.63c0,10.02 -0.65,19.6 -1.96,28.75l-233.24 0c2.17,31.8 15.46,47.69 39.85,47.69 15.68,0 27.01,-7.19 33.97,-21.56l153.54 0c-5.23,26.14 -16.23,49.54 -32.99,70.23 -16.77,20.7 -37.89,37.02 -63.37,49 -25.49,11.98 -53.47,17.97 -83.96,17.97 -36.59,0 -69.15,-7.62 -97.68,-22.87 -28.53,-15.24 -50.74,-37.13 -66.64,-65.66 -15.9,-28.53 -23.85,-61.96 -23.85,-100.29 0,-38.32 7.95,-71.76 23.85,-100.28 15.9,-28.54 38.11,-50.42 66.64,-65.66 28.54,-15.25 61.09,-22.88 97.68,-22.88 36.58,0 69.14,7.52 97.67,22.55 28.53,15.03 50.74,36.47 66.64,64.35 15.9,27.89 23.85,60.77 23.85,98.66zm-147.01 -30.72c0,-13.94 -3.92,-24.28 -11.76,-31.03 -7.84,-6.76 -17.64,-10.13 -29.4,-10.13 -26.58,0 -41.82,13.72 -45.74,41.15l86.9 0z"/>
   <polygon id="_7" class="fil4" points="5006.01,668.15 4943.94,585.17 4897.55,668.15 4738.13,668.15 4861.62,474.1 4731.6,299.65 4893.63,299.65 4955.7,383.28 5002.75,299.65 5162.16,299.65 5034.76,489.12 5168.04,668.15 "/>
  </g>
 </g>
</svg>
