<?xml version="1.0" encoding="UTF-8"?>
<!DOCTYPE svg PUBLIC "-//W3C//DTD SVG 1.1//EN" "http://www.w3.org/Graphics/SVG/1.1/DTD/svg11.dtd">
<!-- Creator: CorelDRAW -->
<svg xmlns="http://www.w3.org/2000/svg" xml:space="preserve" width="71.4378mm" height="13.2292mm" version="1.1" style="shape-rendering:geometricPrecision; text-rendering:geometricPrecision; image-rendering:optimizeQuality; fill-rule:evenodd; clip-rule:evenodd"
viewBox="0 0 14837.16 2747.62"
 xmlns:xlink="http://www.w3.org/1999/xlink"
 xmlns:xodm="http://www.corel.com/coreldraw/odm/2003">
 <defs>
  <style type="text/css">
   <![CDATA[
    .fil2 {fill:#FEFEFE;fill-rule:nonzero}
    .fil1 {fill:#172C45;fill-rule:nonzero}
    .fil0 {fill:#BEF1DE;fill-rule:nonzero}
   ]]>
  </style>
 </defs>
 <g id="Layer_x0020_1">
  <metadata id="CorelCorpID_0Corel-Layer"/>
  <g id="_1979315881760">
   <circle class="fil0" cx="1373.81" cy="1373.81" r="1373.81"/>
   <path class="fil1" d="M2087.19 1638.91c-2.55,-22.04 -10.26,-45.71 -22.91,-70.41 -23.1,-45.15 -62.64,-94.29 -117.55,-145.99 -24.57,-23.14 -51.72,-46.36 -81.1,-69.41 -15.83,15.89 -32.38,31.8 -49.66,47.71 30.36,23.53 58.24,47.21 83.26,70.78 48.52,45.71 84.37,89.81 103.66,127.5 11.71,22.85 23.24,55.08 11.61,78.82 -11.61,23.72 -44.28,34.95 -69.66,40.21 -41.89,8.64 -99.15,8.54 -165.68,-0.33 -47.33,-6.31 -98.18,-16.74 -151.47,-30.84 7.1,-46.59 12.57,-95.27 16.35,-145.47 0.58,-7.68 1.12,-15.43 1.62,-23.2 56.41,-41.95 108.83,-85.11 156,-128.4 17.34,-15.93 33.94,-31.84 49.83,-47.75 29.41,-29.33 57.28,-60.11 83.47,-92.24 4.28,-5.3 8.43,-10.53 12.44,-15.68 23.34,5.61 47.94,3.3 69.76,-6.58 21.85,-9.89 39.67,-26.73 50.61,-47.85 10.92,-21.1 14.31,-45.24 9.62,-68.48 -4.69,-23.26 -17.22,-44.26 -35.52,-59.63 2.14,-11.46 3.12,-23.1 2.95,-34.75 -0.52,-25.11 -7.21,-47.44 -19.86,-66.4 -12.67,-18.96 -30.84,-33.83 -54,-44.2 -20.44,-9.16 -45.01,-14.81 -73,-16.8 -51.13,-3.66 -114.15,4.57 -187.34,24.45 -33.42,9.06 -68.29,20.37 -104.22,33.75 -1.31,-5.82 -2.68,-11.57 -4.07,-17.3 -7.41,-30.59 -15.66,-59.71 -24.67,-87.13 -23.43,-71.2 -51.11,-127.65 -82.37,-167.77 -17.09,-21.95 -35.41,-39.07 -54.39,-50.88 -21.52,-13.38 -44.11,-20.17 -67.13,-20.17 -22.99,0 -45.59,6.79 -67.11,20.17 -18.98,11.82 -37.3,28.93 -54.39,50.88 -31.22,40.13 -58.94,96.58 -82.37,167.8 -15.04,45.69 -27.89,96.14 -38.4,150.22 -51.36,-13.42 -100.65,-23.51 -146.88,-29.97 -2.93,-26.09 -15.6,-50.14 -35.56,-67.48 -19.96,-17.34 -45.75,-26.71 -72.36,-26.27 -26.58,0.44 -52.05,10.65 -71.4,28.66 -19.36,17.99 -31.22,42.45 -33.23,68.62 -20.46,5.52 -38.42,13 -53.46,22.33 -21.56,13.33 -37.53,30.47 -47.52,50.93 -10.01,20.46 -13.58,43.49 -10.68,68.41 2.55,22.04 10.26,45.69 22.91,70.41 23.12,45.15 62.64,94.29 117.55,145.99 24.57,23.16 51.72,46.36 81.1,69.41 15.83,-15.89 32.38,-31.8 49.66,-47.73 -30.36,-23.51 -58.24,-47.19 -83.26,-70.76 -48.52,-45.71 -84.37,-89.81 -103.66,-127.48 -11.71,-22.87 -23.22,-55.1 -11.61,-78.82 9.6,-19.69 33.71,-30.76 56.14,-36.97 9.87,14.85 23.39,27 39.27,35.33 15.91,8.31 33.69,12.52 51.67,12.25 18.01,-0.27 35.64,-5.05 51.28,-13.83 15.64,-8.81 28.74,-21.37 38.15,-36.51 46.96,6.31 97.45,16.66 150.29,30.66 -7.08,46.59 -12.54,95.27 -16.32,145.47 -0.58,7.68 -1.12,15.43 -1.6,23.2 -56.43,41.95 -108.85,85.11 -156,128.42 -17.36,15.91 -33.96,31.82 -49.83,47.73 -29.43,29.33 -57.28,60.11 -83.51,92.24 -47.37,58.51 -79.92,112.38 -96.68,160.17 -9.2,26.17 -13.62,50.66 -13.17,72.8 0.52,25.11 7.21,47.44 19.86,66.4 12.67,18.96 30.84,33.83 54,44.2 20.44,9.16 45.01,14.81 73,16.8 7.87,0.6 16.01,0.89 24.45,0.89 46.32,0 100.94,-8.47 162.89,-25.3 33.42,-9.08 68.29,-20.4 104.2,-33.77 1.33,5.84 2.68,11.59 4.09,17.32 7.41,30.59 15.66,59.71 24.67,87.13 23.41,71.13 51.09,127.54 82.35,167.69 17.09,21.95 35.39,39.07 54.39,50.88 21.52,13.38 44.09,20.17 67.11,20.17 23.01,0 45.61,-6.79 67.13,-20.17 18.98,-11.82 37.3,-28.93 54.37,-50.88 8.08,-10.47 15.58,-21.35 22.43,-32.61 23.14,2.37 46.44,-2.76 66.34,-14.66 19.92,-11.88 35.33,-29.85 43.93,-51.18 8.6,-21.33 9.91,-44.84 3.7,-66.96 -6.19,-22.14 -19.56,-41.64 -38.03,-55.6 8.39,-30.72 15.89,-63.16 22.47,-96.99 53.98,14.1 105.63,24.51 153.88,30.95 36.99,4.94 71.18,7.39 102.31,7.39 32.17,0 61.14,-2.64 86.65,-7.91 27.48,-5.69 51.05,-14.54 70.05,-26.29 21.56,-13.33 37.53,-30.47 47.52,-50.93 10.01,-20.46 13.54,-43.47 10.63,-68.39zm-1068.5 129.29c-64.7,17.57 -121.44,25.23 -164.14,22.2 -25.9,-1.85 -59.84,-8.66 -74.5,-30.68 -14.66,-21.97 -7.66,-55.43 0.83,-79.63 14.02,-39.9 43.57,-88.31 85.45,-140.03 24.94,-30.8 53.67,-62.22 85.63,-93.86 16.08,-15.91 32.94,-31.84 50.61,-47.79 29.78,-26.9 61.71,-53.75 95.41,-80.29 -0.19,7.64 -0.33,15.29 -0.42,22.93 -0.17,10.86 -0.25,21.77 -0.25,32.71 0,29.01 0.54,57.74 1.62,86.19 -28.18,-16.82 -55.27,-33.94 -81.29,-51.34 -17.74,15.93 -34.71,31.88 -50.91,47.81 42.6,29.08 88.44,57.51 136.72,84.95 4.53,60.29 11.51,118.43 20.79,173.32 1,5.94 2.01,11.84 3.09,17.72 -37.57,14.37 -73.96,26.34 -108.67,35.79zm539.34 -708.42c5.48,34.46 10.05,70.24 13.62,107.05 -25.48,-13.27 -51.49,-26.19 -78.01,-38.78 -13.23,-6.27 -26.46,-12.4 -39.69,-18.4 -6.85,-3.09 -13.69,-6.15 -20.54,-9.18 41.23,-21.72 81.96,-41.35 121.69,-58.65 1,5.94 1.97,11.92 2.93,17.97zm-322.69 -195.48c20.73,-62.95 45.46,-113.94 71.51,-147.42 15.81,-20.31 40.27,-44.53 66.96,-44.53 26.69,0 51.13,24.22 66.94,44.53 26.07,33.48 50.8,84.47 71.51,147.42 9.45,28.66 17.99,59.34 25.59,91.76 1.35,5.75 2.68,11.59 3.97,17.47 -61.27,26.02 -124.82,57.39 -188.94,93.23 -7.1,-2.8 -14.19,-5.59 -21.27,-8.29 -45.34,-17.45 -90.14,-32.92 -133.78,-46.13 10.2,-53.52 22.76,-103.27 37.51,-148.04zm-58.13 290.02c2.62,-25.36 5.71,-50.18 9.28,-74.46 22.99,7.12 46.27,14.87 69.89,23.24 7.08,2.51 14.16,5.07 21.29,7.68 -18.67,11.4 -37.34,23.16 -55.97,35.25 -15.78,10.28 -31.38,20.67 -46.75,31.17 0.71,-7.68 1.45,-15.31 2.24,-22.89l0.02 0zm12.36 533.54c-5.48,-34.48 -10.05,-70.24 -13.62,-107.05 25.48,13.27 51.49,26.19 78.01,38.78 13.23,6.27 26.46,12.4 39.69,18.38 6.85,3.09 13.71,6.17 20.54,9.18 -41.21,21.72 -81.96,41.35 -121.69,58.65 -1,-5.94 -1.99,-11.92 -2.95,-17.97l0.02 0.02zm338.77 141.56c-21.27,0.08 -42.02,6.44 -59.59,18.21 -17.57,11.82 -31.17,28.52 -39.09,48 -7.89,19.46 -9.7,40.81 -5.21,61.33 4.49,20.5 15.08,39.21 30.43,53.73 -4.65,7.25 -9.35,13.92 -14.12,20.04 -15.81,20.27 -40.25,44.55 -66.94,44.55 -26.69,0 -51.15,-24.22 -66.96,-44.55 -26.04,-33.48 -50.78,-84.45 -71.51,-147.4 -9.43,-28.66 -17.97,-59.36 -25.57,-91.76 -1.37,-5.77 -2.7,-11.59 -3.99,-17.49 61.29,-26.02 124.84,-57.36 188.94,-93.23 7.1,2.82 14.21,5.59 21.27,8.31 45.38,17.43 90.14,32.86 133.78,46.13 -6.25,32.88 -13.4,64.34 -21.43,94.13zm42.08 -236.13c-2.64,25.36 -5.73,50.18 -9.28,74.48 -22.99,-7.14 -46.29,-14.89 -69.89,-23.26 -7.08,-2.49 -14.19,-5.07 -21.29,-7.66 18.67,-11.42 37.32,-23.16 55.95,-35.25 15.81,-10.28 31.38,-20.67 46.75,-31.2 -0.71,7.66 -1.45,15.31 -2.26,22.89l0.02 0zm9.41 -133.13c-0.29,7.56 -0.62,15.1 -1,22.6 -29.26,21.12 -59.52,41.83 -90.76,62.14 -32.77,21.29 -65.69,41.52 -98.49,60.54 -6.81,-2.82 -13.65,-5.69 -20.48,-8.6 -28.35,-12.07 -56.78,-24.88 -85.32,-38.4 -39.19,-18.59 -77.3,-38.01 -114.04,-58.07 -2.39,-41.35 -3.57,-83.66 -3.57,-126.57 0,-29.1 0.54,-57.88 1.66,-86.36 0.29,-7.56 0.62,-15.1 1,-22.6 29.26,-21.12 59.52,-41.83 90.76,-62.14 32.77,-21.29 65.69,-41.52 98.49,-60.54 6.79,2.82 13.62,5.69 20.48,8.6 28.33,12.07 56.78,24.88 85.32,38.4 39.19,18.59 77.3,38.01 114.04,58.07 2.39,41.35 3.57,83.66 3.57,126.57 0,29.1 -0.56,57.88 -1.68,86.36l0.02 0zm40.35 -445.02c37.63,-14.35 74.02,-26.36 108.73,-35.76 55.45,-15.06 105.07,-22.85 144.99,-22.85 6.65,0 13.04,0.23 19.15,0.66 25.9,1.83 59.84,8.66 74.5,30.66 7.31,10.92 9.24,24.67 8.29,38.78 -1.02,0 -2.06,0 -3.09,0 -20.1,-0.02 -39.79,5.59 -56.8,16.12 -17.01,10.55 -30.68,25.61 -39.4,43.49 -8.72,17.84 -12.15,37.78 -9.89,57.47 2.24,19.71 10.07,38.38 22.62,53.88 -2.62,3.32 -5.3,6.67 -8.04,10.03 -24.94,30.84 -53.67,62.22 -85.63,93.84 -16.08,15.91 -32.94,31.84 -50.61,47.81 -29.78,26.9 -61.71,53.75 -95.44,80.27 0.21,-7.62 0.35,-15.27 0.44,-22.91 0.17,-10.88 0.25,-21.79 0.25,-32.73 0,-28.99 -0.54,-57.72 -1.62,-86.17 28.18,16.82 55.27,33.94 81.29,51.34 17.74,-15.95 34.71,-31.9 50.91,-47.83 -42.6,-29.08 -88.44,-57.51 -136.72,-84.95 -4.53,-60.27 -11.51,-118.41 -20.79,-173.3 -1,-6 -2.04,-11.94 -3.12,-17.82l0 -0.02z"/>
   <path class="fil1" d="M1373.79 1473.4c55.77,0 100.94,-44.59 100.94,-99.57 0,-55 -45.17,-99.59 -100.94,-99.59 -55.74,0 -100.92,44.59 -100.92,99.59 0,54.98 45.17,99.57 100.92,99.57z"/>
   <path class="fil2" d="M4242.35 1236.92c0,65.63 -15.54,127.19 -46.61,184.64 -31.07,57.43 -79.71,103.74 -145.97,138.91 -66.23,35.18 -149.75,52.75 -250.58,52.75l-205.74 0 0 471.28 -246.18 0 0 -1227.43 451.92 0c94.96,0 175.85,16.43 242.67,49.24 66.84,32.84 116.95,77.97 150.37,135.4 33.4,57.45 50.12,122.52 50.12,195.21zm-453.71 182.87c66.84,0 116.95,-16.41 150.35,-49.24 33.42,-32.82 50.12,-77.37 50.12,-133.63 0,-58.63 -16.41,-104.05 -49.22,-136.29 -32.84,-32.23 -83.24,-48.37 -151.24,-48.37l-195.19 0 0 367.53 195.19 0z"/>
   <path id="_1" class="fil2" d="M4965.08 1096.23c73.86,0 139.51,16.12 196.96,48.35 57.45,32.25 102.29,79.73 134.52,142.46 32.23,62.7 48.35,138.03 48.35,225.95l0 571.51 -246.18 0 0 -538.09c0,-77.37 -19.36,-136.87 -58.03,-178.49 -38.69,-41.62 -91.45,-62.41 -158.26,-62.41 -68,0 -121.63,20.79 -160.9,62.41 -39.27,41.62 -58.92,101.13 -58.92,178.49l0 538.09 -246.18 0 0 -1301.28 246.18 0 0 448.43c31.65,-42.22 73.86,-75.33 126.61,-99.36 52.75,-24.03 111.39,-36.06 175.85,-36.06z"/>
   <path id="_2" class="fil2" d="M5515.48 1593.88c0,-98.47 19.63,-185.82 58.9,-262.01 39.27,-76.2 92.61,-134.83 160.03,-175.85 67.42,-41.04 142.73,-61.56 225.97,-61.56 72.67,0 136.27,14.66 190.79,43.97 54.52,29.31 98.18,66.23 131.01,110.78l0 -138.93 247.94 0 0 974.21 -247.94 0 0 -142.44c-31.65,45.71 -75.33,83.53 -131.01,113.42 -55.68,29.89 -119.86,44.84 -192.55,44.84 -82.06,0 -156.79,-21.1 -224.21,-63.3 -67.42,-42.2 -120.75,-101.71 -160.03,-178.49 -39.27,-76.78 -58.9,-164.99 -58.9,-264.64zm766.7 3.51c0,-59.77 -11.73,-111.07 -35.18,-153.86 -23.43,-42.78 -55.08,-75.62 -94.96,-98.47 -39.86,-22.87 -82.64,-34.29 -128.35,-34.29 -45.73,0 -87.94,11.13 -126.61,33.4 -38.69,22.29 -70.05,54.81 -94.09,97.6 -24.03,42.78 -36.06,93.5 -36.06,152.11 0,58.61 12.03,109.91 36.06,153.86 24.03,43.97 55.68,77.68 94.96,101.13 39.27,23.45 81.19,35.16 125.74,35.16 45.71,0 88.5,-11.42 128.35,-34.29 39.88,-22.87 71.53,-55.68 94.96,-98.47 23.45,-42.81 35.18,-94.09 35.18,-153.88z"/>
   <path id="_3" class="fil2" d="M7017.21 1282.63c31.65,-58.61 72.98,-104.35 123.97,-137.16 51.01,-32.84 109.33,-49.24 174.98,-49.24l0 258.5 -65.07 0c-77.37,0 -135.69,18.17 -174.96,54.52 -39.27,36.35 -58.92,99.65 -58.92,189.91l0 485.34 -246.18 0 0 -974.21 246.18 0 0 172.34z"/>
   <path id="_4" class="fil2" d="M8691.28 1096.23c119.57,0 216,36.64 289.28,109.91 73.25,73.27 109.89,175.54 109.89,306.85l0 571.51 -246.18 0 0 -538.09c0,-76.2 -19.34,-134.52 -58.03,-174.96 -38.69,-40.46 -91.45,-60.67 -158.26,-60.67 -66.81,0 -119.88,20.21 -159.13,60.67 -39.27,40.44 -58.92,98.76 -58.92,174.96l0 538.09 -246.18 0 0 -538.09c0,-76.2 -19.36,-134.52 -58.03,-174.96 -38.69,-40.46 -91.45,-60.67 -158.26,-60.67 -68,0 -121.63,20.21 -160.9,60.67 -39.27,40.44 -58.92,98.76 -58.92,174.96l0 538.09 -246.18 0 0 -974.21 246.18 0 0 117.82c31.65,-41.02 72.4,-73.27 122.23,-96.72 49.83,-23.43 104.62,-35.16 164.41,-35.16 76.2,0 144.2,16.12 203.98,48.35 59.79,32.25 106.11,78.26 138.93,138.05 31.65,-56.26 77.68,-101.42 138.05,-135.42 60.36,-33.98 125.72,-50.99 196.06,-50.99z"/>
   <path id="_5" class="fil2" d="M10224.68 857.07c128.96,0 242.38,25.21 340.26,75.62 97.89,50.41 173.51,122.21 226.84,215.42 53.34,93.19 80,201.34 80,324.44 0,123.1 -26.67,230.64 -80,322.67 -53.34,92.03 -128.96,163.25 -226.84,213.65 -97.89,50.41 -211.31,75.62 -340.26,75.62l-429.07 0 0 -1227.43 429.07 0zm-8.81 1026.96c127.79,0 227.15,-36.35 298.06,-109.02 70.93,-72.69 106.4,-173.51 106.4,-302.46 0,-127.79 -35.16,-228.03 -105.51,-300.7 -70.35,-72.69 -170,-109.04 -298.95,-109.04l-174.09 0 0 821.22 174.09 0z"/>
   <path id="_6" class="fil2" d="M11181.28 994.23c-43.37,0 -79.42,-13.77 -108.15,-41.31 -28.72,-27.56 -43.08,-61.85 -43.08,-102.87 0,-41.04 14.35,-75.33 43.08,-102.87 28.72,-27.56 64.78,-41.33 108.15,-41.33 43.39,0 79.44,13.77 108.15,41.33 28.72,27.54 43.1,61.83 43.1,102.87 0,41.02 -14.37,75.31 -43.1,102.87 -28.7,27.54 -64.76,41.31 -108.15,41.31zm121.33 116.06l0 974.21 -246.18 0 0 -974.21 246.18 0z"/>
   <path id="_7" class="fil2" d="M11916.32 2100.32c-79.71,0 -150.93,-14.35 -213.65,-43.08 -62.72,-28.72 -112.55,-67.71 -149.48,-116.95 -36.93,-49.22 -57.16,-103.74 -60.67,-163.54l247.94 0c4.69,41.04 22.87,74.15 54.52,99.36 31.65,25.21 72.09,37.8 121.33,37.8 46.9,0 83.51,-9.66 109.89,-29.01 26.38,-19.34 39.57,-45.42 39.57,-78.24 0,-31.65 -16.12,-55.7 -48.35,-72.11 -32.23,-16.41 -84.12,-33.4 -155.62,-50.99 -71.51,-17.59 -130.12,-35.47 -175.85,-53.63 -45.71,-18.17 -84.99,-46.61 -117.8,-85.3 -32.84,-38.67 -49.24,-89.68 -49.24,-152.99 0,-55.1 14.95,-105.22 44.84,-150.35 29.89,-45.13 73.86,-80.9 131.89,-107.27 58.03,-26.38 126.32,-39.57 204.87,-39.57 116.06,0 208.67,29.01 277.83,87.04 69.16,58.05 107.27,136.29 114.29,234.78l-235.63 0c-3.51,-41.04 -19.63,-73.86 -48.35,-98.49 -28.72,-24.61 -67.13,-36.93 -115.19,-36.93 -44.55,0 -78.84,9.1 -102.87,27.27 -24.03,18.15 -36.06,43.08 -36.06,74.73 0,32.82 16.43,57.74 49.24,74.73 32.84,17.01 83.83,34.29 152.99,51.88 70.35,17.59 128.38,35.74 174.09,54.52 45.71,18.75 84.99,47.17 117.82,85.28 32.82,38.09 49.22,89.39 49.22,153.86 0,56.28 -15.22,106.98 -45.71,152.11 -30.47,45.13 -74.44,80.61 -131.89,106.38 -57.45,25.8 -125.43,38.69 -203.98,38.69z"/>
   <path id="_8" class="fil2" d="M12790.3 1312.52l0 471.28c0,32.82 7.91,56.55 23.74,71.22 15.83,14.66 42.49,21.97 80,21.97l114.29 0 0 207.51 -154.73 0c-207.51,0 -311.25,-100.81 -311.25,-302.46l0 -469.51 -116.06 0 0 -202.23 116.06 0 0 -240.9 247.94 0 0 240.9 218.04 0 0 202.23 -218.04 0z"/>
   <path id="_9" class="fil2" d="M13432.13 1282.63c31.65,-58.61 72.98,-104.35 123.97,-137.16 51.01,-32.84 109.33,-49.24 174.98,-49.24l0 258.5 -65.07 0c-77.37,0 -135.69,18.17 -174.96,54.52 -39.27,36.35 -58.92,99.65 -58.92,189.91l0 485.34 -246.18 0 0 -974.21 246.18 0 0 172.34z"/>
   <path id="_10" class="fil2" d="M14328.95 2100.32c-93.77,0 -178.18,-20.81 -253.22,-62.43 -75.02,-41.6 -133.94,-100.52 -176.73,-176.73 -42.78,-76.2 -64.18,-164.12 -64.18,-263.77 0,-99.65 21.97,-187.57 65.94,-263.77 43.95,-76.2 104.03,-135.1 180.24,-176.73 76.2,-41.62 161.19,-62.43 254.99,-62.43 93.77,0 178.78,20.81 254.96,62.43 76.2,41.62 136.29,100.52 180.26,176.73 43.97,76.2 65.94,164.12 65.94,263.77 0,99.65 -22.58,187.57 -67.71,263.77 -45.13,76.2 -106.09,135.13 -182.87,176.73 -76.78,41.62 -162.67,62.43 -257.62,62.43zm0 -211.02c44.55,0 86.46,-11.13 125.74,-33.42 39.27,-22.26 70.64,-55.39 94.06,-99.34 23.45,-43.97 35.18,-97.01 35.18,-159.16 0,-62.12 -11.73,-115.17 -35.18,-159.13 -23.43,-43.97 -54.21,-77.08 -92.32,-99.36 -38.09,-22.26 -79.42,-33.4 -123.97,-33.4 -69.16,0 -127.77,25.48 -175.83,76.49 -48.06,50.99 -72.11,122.79 -72.11,215.4 0,92.61 23.45,164.43 70.35,215.42 46.9,50.99 104.93,76.49 174.09,76.49z"/>
  </g>
 </g>
</svg>
